 <svg width="1914" height="1934" viewBox="28 38 1914 1934" xmlns="http://www.w3.org/2000/svg">
 <path d="M 30 990 
           Q 395 605 120 210 
           L 200 100 
           Q 455 190 690 40 
           Q 985 240 1280 40
           Q 1515 190 1770 100 
           L 1850 210 
           Q 1575 605 1940 990 
           L 1850 1090 
           Q 1850 1800 1130 1850 
           L 985 1970 
           L 840 1850 
           Q 120 1800 120 1090 Z
M 80 990
Q 420 615 170 210
L 220 150
Q 460 230 690 90
Q 985 280 1280 90
Q 1510 230 1750 150
L 1800 210
Q 1550 615 1890 990
L 1805 1080
Q 1830 1770 1115 1810
L 985 1920
L 855 1810
Q 140 1770 165 1080 Z"
fill="black"
clip-rule="evenodd"
fill-rule="evenodd"/>
           

<!--щит-->
<path d="M 240 1080
         Q 200 1710 840 1740
         L 1130 1740
         Q 1770 1710 1730 1080 Z"
         fill="none" 
            stroke="black" 
            stroke-width="10"/>
<path d=" M 445 1080 L 445 1624.5 Q 202 1445 240 1080 Z
M 655 1080 L 655 1715 Q 765 1740 875 1739.5 L 875 1568 A 200 200 0 0 1 875 1232 L 875 1080 Z
M 1095 1080 L 1095 1232 A 200 200 0 0 1 1095 1568 L 1095 1739.5 Q 1205 1740 1315 1715 L 1315 1080 Z
M 1525 1080 L 1730 1080 Q 1765 1445 1528 1623 Z"
fill="black"/>


<!--крест-->
 <path d="M 344 630
           L 550 630
           L 550 823.5 
             760 823.5
           L 760 630
           L 983 630 
             983 420
           L 760 420
           L 760 213.5
           Q 720 192 690 171.5
           Q 630 210 550 232.2
           L 550 420
           L 334 420
           Q 359.5 525 345.5 630 z" 
           fill="black"/>

  <path d="M 280 825
           L 1685 825
           Q 1540 530 1710 240
           Q 1455 280 1280 170
           Q 985 370  690 170
           Q 515 280 255 240
           Q 430 530 280 825 Z
           M 985 825
           L 985 270"
           fill="none" 
           stroke="black" 
           stroke-width="10"/>
   
 <path d="M 1052 825
            L 1052 265
            Q 1093 258 1134 245
            L 1134 825 Z
            M 1201 825
             L 1201 216.5
             Q 1241 197 1280 170
             L 1283 172 L 1283 825 Z
             M 1350 825
             L 1350 207 
             Q 1391 224 1432 234
             L 1432 825 Z
             M 1499 825
       L 1499 246
       Q 1540 251 1581 250.7
       L 1581 825 Z"
            fill="black"/>   

<circle cx="985" cy="1400" r="200"
         fill="black" 
            stroke="white" 
            stroke-width="10"/>

  <!-- ЛЕПЕСТОК 1 (оригинал) -->
  <path d="M 985 1400 Q 920 1355 985 1285 Q 942 1242 980 1200"
        fill="none" stroke="white" stroke-width="10"/>

  <!-- ЛЕПЕСТОК 2 (поворот 120°) -->
  <path d="M 985 1400 Q 1050 1360 1085 1450 Q 1144.3 1440.0 1163 1491"
        fill="none" stroke="white" stroke-width="10"/>

  <!-- ЛЕПЕСТОК 3 (поворот 240°) -->
  <path d="M 985 1400 Q 947 1487 887.9 1440 Q 870.7 1488.0 807 1490.7"
        fill="none" stroke="white" stroke-width="10"/>


 <path d="M 888 1440 Q 835 1390 872 1235 
 M 870 1564 Q 1055 1545 1085 1450 
 M 985 1285 Q 1105 1270 1184.7 1410"
    fill="none" stroke="white" stroke-width="10"/>   

 <!--F-->
 <path d="M 670 860
         L 670 1045
         L 710 1045
         L 710 970
         L 765 970
         L 765 930
         L 710 930
         L 710 900
         L 808 900
         L 808 860 Z"
                fill="black"/>
 <!--C-->
 <path d="M 1005 915
                L 1040 900
                Q 1020 860 975 860
                Q 920 860 902 910
                Q 885 960 902 1000 
                Q 923 1045 975 1045
                Q 1020 1045 1040 1000
                L 1005 985
                Q 997 1007 975 1007 
                Q 945 1007 938 985  
                Q 927 950 941 915 
                Q 950 896 975 896
                Q 998 897 1005 915 z"
                fill="black"/>

 <!--B-->
 <path d="M 1140 860
                L 1140 1045
                L 1250 1045
                Q 1323 1005 1275 945
                Q 1313 890 1250 860 z
                 M 1180 965
                 L 1180 1005
                 L 1240 1005
                 Q 1265 985 1240 965 z 
                 M 1180 900
                  L 1180 930
                  L 1240 930
                  Q 1260 915 1240 900 z"
             fill="black" 
             fill-rule="evenodd"
             clip-rule="evenodd"/></svg>
