<svg xmlns="http://www.w3.org/2000/svg" width="500" height="180" viewBox="135 361 1000 356">
  <path fill="#007BFF" d="M245.8 717.6c-29.8-1.2-54.2-9.3-73.2-24.5-3.6-2.9-12.3-11.6-15.2-15.2-7.7-9.7-13-19.2-16.5-29.7-10.8-32.3-5.2-74.7 15.9-121.2 18.1-39.8 46-79.3 94.6-134 7.2-8.1 28.5-31.6 28.7-31.6.1 0-1.1 2-2.6 4.5-12.7 21.2-23.5 46.2-29.4 67.8-9.5 34.7-8.3 64.4 3.3 87.5 8.1 15.9 21.9 29.7 37.4 37.3 27.2 13.3 67 14.4 115.6 3.2 3.3-.8 169.2-44.8 368.6-97.8 199.4-53 362.5-96.4 362.5-96.4.1 0-463.2 198.3-703.6 301.1-38.1 16.3-48.3 20.4-66.2 26.7-45.8 16.1-86.8 23.7-119.9 22.4z"/>
</svg>
