
<svg xmlns="http://www.w3.org/2000/svg"
     width="1028"
     height="382"
     viewBox="0 0 1028 382">
    <path d="M 158,17 157,18 156,19 155,20 154,21 153,22 152,23 151,24 151,25 150,26 149,27 148,28 147,29 146,30 145,31 144,32 143,33 142,34 141,35 141,36 140,37 139,38 138,39 137,40 136,41 135,42 134,43 133,44 133,45 132,46 131,47 130,48 129,49 128,50 127,51 126,52 125,53 125,54 124,55 123,56 122,57 121,58 120,59 119,60 119,61 118,62 117,63 116,64 115,65 114,66 113,67 113,68 112,69 111,70 110,71 109,72 108,73 108,74 107,75 106,76 105,77 104,78 103,79 103,80 102,81 101,82 100,83 99,84 99,85 98,86 97,87 96,88 95,89 95,90 94,91 93,92 92,93 92,94 91,95 90,96 89,97 88,98 88,99 87,100 86,101 85,102 85,103 84,104 83,105 82,106 82,107 81,108 80,109 79,110 79,111 78,112 77,113 77,114 76,115 75,116 74,117 74,118 73,119 72,120 72,121 71,122 70,123 70,124 69,125 68,126 68,127 67,128 66,129 66,130 65,131 64,132 64,133 63,134 62,135 62,136 61,137 60,138 60,139 59,140 59,141 58,142 57,143 57,144 56,145 56,146 55,147 54,148 54,149 53,150 53,151 52,152 52,153 51,154 50,155 50,156 49,157 49,158 48,159 48,160 47,161 47,162 46,163 46,164 45,165 45,166 44,167 44,168 43,169 43,170 42,171 42,172 41,173 41,174 40,175 40,176 39,177 39,178 38,179 38,180 38,181 37,182 37,183 36,184 36,185 36,186 35,187 35,188 34,189 34,190 33,191 33,192 33,193 32,194 32,195 32,196 31,197 31,198 30,199 30,200 30,201 29,202 29,203 29,204 28,205 28,206 28,207 27,208 27,209 27,210 26,211 26,212 26,213 26,214 25,215 25,216 25,217 25,218 24,219 24,220 24,221 23,222 23,223 23,224 23,225 22,226 22,227 22,228 22,229 22,230 21,231 21,232 21,233 21,234 21,235 21,236 20,237 20,238 20,239 20,240 20,241 19,242 19,243 19,244 19,245 19,246 19,247 19,248 19,249 19,250 19,251 19,252 18,253 18,254 18,255 18,256 18,257 18,258 18,259 18,260 18,261 18,262 18,263 18,264 18,265 18,266 18,267 18,268 18,269 18,270 18,271 18,272 18,273 18,274 19,275 19,276 19,277 19,278 19,279 19,280 19,281 19,282 20,283 20,284 20,285 20,286 20,287 21,288 21,289 21,290 21,291 22,292 22,293 22,294 22,295 23,296 23,297 23,298 23,299 24,300 24,301 25,302 25,303 25,304 26,305 26,306 27,307 27,308 28,309 28,310 29,311 29,312 30,313 30,314 31,315 31,316 32,317 33,318 33,319 34,320 34,321 35,322 36,323 37,324 37,325 38,326 39,327 40,328 40,329 41,330 42,331 43,332 44,333 45,334 46,335 47,336 48,337 49,338 50,339 51,340 52,341 53,342 54,343 55,343 56,344 57,345 58,346 59,346 60,347 61,348 62,348 63,349 64,350 65,350 66,351 67,351 68,352 69,353 70,353 71,354 72,354 73,355 74,355 75,356 76,356 77,357 78,357 79,357 80,358 81,358 82,359 83,359 84,359 85,360 86,360 87,360 88,361 89,361 90,361 91,362 92,362 93,362 94,362 95,363 96,363 97,363 98,363 99,364 100,364 101,364 102,364 103,364 104,365 105,365 106,365 107,365 108,365 109,365 110,366 111,366 112,366 113,366 114,366 115,366 116,366 117,367 118,367 119,367 120,367 121,367 122,367 123,367 124,367 125,367 126,367 127,367 128,367 129,367 130,367 131,367 132,367 133,367 134,367 135,367 136,367 137,367 138,367 139,367 140,367 141,367 142,367 143,367 144,367 145,367 146,367 147,367 148,367 149,367 150,367 151,367 152,367 153,367 154,367 155,366 156,366 157,366 158,366 159,366 160,366 161,366 162,366 163,366 164,365 165,365 166,365 167,365 168,365 169,365 170,365 171,364 172,364 173,364 174,364 175,364 176,364 177,364 178,363 179,363 180,363 181,363 182,363 183,363 184,362 185,362 186,362 187,362 188,361 189,361 190,361 191,361 192,361 193,360 194,360 195,360 196,360 197,360 198,359 199,359 200,359 201,359 202,358 203,358 204,358 205,358 206,357 207,357 208,357 209,357 210,356 211,356 212,356 213,356 214,355 215,355 216,355 217,354 218,354 219,354 220,354 221,353 222,353 223,353 224,352 225,352 226,352 227,351 228,351 229,351 230,351 231,350 232,350 233,350 234,349 235,349 236,349 237,348 238,348 239,348 240,347 241,347 242,347 243,346 244,346 245,346 246,345 247,345 248,345 249,344 250,344 251,344 252,343 253,343 254,342 255,342 256,342 257,341 258,341 259,341 260,340 261,340 262,339 263,339 264,339 265,338 266,338 267,338 268,337 269,337 270,336 271,336 272,336 273,335 274,335 275,334 276,334 277,334 278,333 279,333 280,332 281,332 282,331 283,331 284,331 285,330 286,330 287,329 288,329 289,329 290,328 291,328 292,327 293,327 294,326 295,326 296,326 297,325 298,325 299,324 300,324 301,323 302,323 303,323 304,322 305,322 306,321 307,321 308,320 309,320 310,320 311,319 312,319 313,318 314,318 315,317 316,317 317,317 318,316 319,316 320,315 321,315 322,314 323,314 324,314 325,313 326,313 327,312 328,312 329,312 330,311 331,311 332,310 333,310 334,309 335,309 336,309 337,308 338,308 339,307 340,307 341,306 342,306 343,306 344,305 345,305 346,304 347,304 348,303 349,303 350,303 351,302 352,302 353,301 354,301 355,300 356,300 357,300 358,299 359,299 360,298 361,298 362,297 363,297 364,297 365,296 366,296 367,295 368,295 369,294 370,294 371,294 372,293 373,293 374,292 375,292 376,291 377,291 378,291 379,290 380,290 381,289 382,289 383,288 384,288 385,288 386,287 387,287 388,286 389,286 390,285 391,285 392,285 393,284 394,284 395,283 396,283 397,282 398,282 399,282 400,281 401,281 402,280 403,280 404,279 405,279 406,279 407,278 408,278 409,277 410,277 411,276 412,276 413,276 414,275 415,275 416,274 417,274 418,273 419,273 420,273 421,272 422,272 423,271 424,271 425,270 426,270 427,270 428,269 429,269 430,268 431,268 432,267 433,267 434,267 435,266 436,266 437,265 438,265 439,264 440,264 441,264 442,263 443,263 444,262 445,262 446,261 447,261 448,261 449,260 450,260 451,259 452,259 453,258 454,258 455,258 456,257 457,257 458,256 459,256 460,255 461,255 462,255 463,254 464,254 465,253 466,253 467,252 468,252 469,252 470,251 471,251 472,250 473,250 474,249 475,249 476,249 477,248 478,248 479,247 480,247 481,246 482,246 483,246 484,245 485,245 486,244 487,244 488,243 489,243 490,243 491,242 492,242 493,241 494,241 495,240 496,240 497,240 498,239 499,239 500,238 501,238 502,237 503,237 504,237 505,236 506,236 507,235 508,235 509,235 510,234 511,234 512,233 513,233 514,232 515,232 516,232 517,231 518,231 519,230 520,230 521,229 522,229 523,229 524,228 525,228 526,227 527,227 528,226 529,226 530,226 531,225 532,225 533,224 534,224 535,223 536,223 537,223 538,222 539,222 540,221 541,221 542,220 543,220 544,220 545,219 546,219 547,218 548,218 549,217 550,217 551,217 552,216 553,216 554,215 555,215 556,214 557,214 558,214 559,213 560,213 561,212 562,212 563,211 564,211 565,211 566,210 567,210 568,209 569,209 570,208 571,208 572,208 573,207 574,207 575,206 576,206 577,205 578,205 579,205 580,204 581,204 582,203 583,203 584,202 585,202 586,202 587,201 588,201 589,200 590,200 591,199 592,199 593,199 594,198 595,198 596,197 597,197 598,196 599,196 600,196 601,195 602,195 603,194 604,194 605,193 606,193 607,193 608,192 609,192 610,191 611,191 612,190 613,190 614,190 615,189 616,189 617,188 618,188 619,187 620,187 621,187 622,186 623,186 624,185 625,185 626,184 627,184 628,184 629,183 630,183 631,182 632,182 633,181 634,181 635,181 636,180 637,180 638,179 639,179 640,178 641,178 642,178 643,177 644,177 645,176 646,176 647,175 648,175 649,175 650,174 651,174 652,173 653,173 654,172 655,172 656,172 657,171 658,171 659,170 660,170 661,169 662,169 663,169 664,168 665,168 666,167 667,167 668,166 669,166 670,166 671,165 672,165 673,164 674,164 675,163 676,163 677,163 678,162 679,162 680,161 681,161 682,160 683,160 684,160 685,159 686,159 687,158 688,158 689,157 690,157 691,157 692,156 693,156 694,155 695,155 696,154 697,154 698,154 699,153 700,153 701,152 702,152 703,151 704,151 705,151 706,150 707,150 708,149 709,149 710,148 711,148 712,148 713,147 714,147 715,146 716,146 717,146 718,145 719,145 720,144 721,144 722,143 723,143 724,143 725,142 726,142 727,141 728,141 729,140 730,140 731,140 732,139 733,139 734,138 735,138 736,137 737,137 738,137 739,136 740,136 741,135 742,135 743,134 744,134 745,134 746,133 747,133 748,132 749,132 750,131 751,131 752,131 753,130 754,130 755,129 756,129 757,128 758,128 759,128 760,127 761,127 762,126 763,126 764,125 765,125 766,125 767,124 768,124 769,123 770,123 771,122 772,122 773,122 774,121 775,121 776,120 777,120 778,119 779,119 780,119 781,118 782,118 783,117 784,117 785,116 786,116 787,116 788,115 789,115 790,114 791,114 792,113 793,113 794,113 795,112 796,112 797,111 798,111 799,110 800,110 801,110 802,109 803,109 804,108 805,108 806,107 807,107 808,107 809,106 810,106 811,105 812,105 813,104 814,104 815,104 816,103 817,103 818,102 819,102 820,101 821,101 822,101 823,100 824,100 825,99 826,99 827,98 828,98 829,98 830,97 831,97 832,96 833,96 834,95 835,95 836,95 837,94 838,94 839,93 840,93 841,92 842,92 843,92 844,91 845,91 846,90 847,90 848,89 849,89 850,89 851,88 852,88 853,87 854,87 855,86 856,86 857,86 858,85 859,85 860,84 861,84 862,83 863,83 864,83 865,82 866,82 867,81 868,81 869,80 870,80 871,80 872,79 873,79 874,78 875,78 876,77 877,77 878,77 879,76 880,76 881,75 882,75 883,74 884,74 885,74 886,73 887,73 888,72 889,72 890,71 891,71 892,71 893,70 894,70 895,69 896,69 897,68 898,68 899,68 900,67 901,67 902,66 903,66 904,65 905,65 906,65 907,64 908,64 909,63 910,63 911,62 912,62 913,62 914,61 915,61 916,60 917,60 918,59 919,59 920,59 921,58 922,58 923,57 924,57 925,56 926,56 927,56 928,55 929,55 930,54 931,54 932,53 933,53 934,53 935,52 936,52 937,51 938,51 939,50 940,50 941,50 942,49 943,49 944,48 945,48 946,47 947,47 948,47 949,46 950,46 951,45 952,45 953,44 954,44 955,44 956,43 957,43 958,42 959,42 960,41 961,41 962,41 963,40 964,40 965,39 966,39 967,38 968,38 969,38 970,37 971,37 972,36 973,36 974,35 975,35 976,35 977,34 978,34 979,33 980,33 981,32 982,32 983,32 984,31 985,31 986,30 987,30 988,30 989,29 990,29 991,28 992,28 993,27 994,27 995,27 996,26 997,26 998,25 999,25 1000,24 1001,24 1002,24 1003,23 1004,23 1005,22 1006,22 1005,22 1004,22 1003,23 1002,23 1001,23 1000,23 999,24 998,24 997,24 996,24 995,25 994,25 993,25 992,26 991,26 990,26 989,26 988,27 987,27 986,27 985,27 984,28 983,28 982,28 981,28 980,29 979,29 978,29 977,30 976,30 975,30 974,30 973,31 972,31 971,31 970,31 969,32 968,32 967,32 966,32 965,33 964,33 963,33 962,34 961,34 960,34 959,34 958,35 957,35 956,35 955,35 954,36 953,36 952,36 951,36 950,37 949,37 948,37 947,38 946,38 945,38 944,38 943,39 942,39 941,39 940,39 939,40 938,40 937,40 936,40 935,41 934,41 933,41 932,42 931,42 930,42 929,42 928,43 927,43 926,43 925,43 924,44 923,44 922,44 921,44 920,45 919,45 918,45 917,46 916,46 915,46 914,46 913,47 912,47 911,47 910,47 909,48 908,48 907,48 906,48 905,49 904,49 903,49 902,50 901,50 900,50 899,50 898,51 897,51 896,51 895,51 894,52 893,52 892,52 891,52 890,53 889,53 888,53 887,53 886,54 885,54 884,54 883,55 882,55 881,55 880,55 879,56 878,56 877,56 876,56 875,57 874,57 873,57 872,57 871,58 870,58 869,58 868,59 867,59 866,59 865,59 864,60 863,60 862,60 861,60 860,61 859,61 858,61 857,61 856,62 855,62 854,62 853,63 852,63 851,63 850,63 849,64 848,64 847,64 846,64 845,65 844,65 843,65 842,65 841,66 840,66 839,66 838,67 837,67 836,67 835,67 834,68 833,68 832,68 831,68 830,69 829,69 828,69 827,69 826,70 825,70 824,70 823,71 822,71 821,71 820,71 819,72 818,72 817,72 816,72 815,73 814,73 813,73 812,73 811,74 810,74 809,74 808,74 807,75 806,75 805,75 804,76 803,76 802,76 801,76 800,77 799,77 798,77 797,77 796,78 795,78 794,78 793,78 792,79 791,79 790,79 789,80 788,80 787,80 786,80 785,81 784,81 783,81 782,81 781,82 780,82 779,82 778,82 777,83 776,83 775,83 774,84 773,84 772,84 771,84 770,85 769,85 768,85 767,85 766,86 765,86 764,86 763,86 762,87 761,87 760,87 759,88 758,88 757,88 756,88 755,89 754,89 753,89 752,89 751,90 750,90 749,90 748,90 747,91 746,91 745,91 744,92 743,92 742,92 741,92 740,93 739,93 738,93 737,93 736,94 735,94 734,94 733,94 732,95 731,95 730,95 729,96 728,96 727,96 726,96 725,97 724,97 723,97 722,97 721,98 720,98 719,98 718,98 717,99 716,99 715,99 714,99 713,100 712,100 711,100 710,101 709,101 708,101 707,101 706,102 705,102 704,102 703,102 702,103 701,103 700,103 699,103 698,104 697,104 696,104 695,105 694,105 693,105 692,105 691,106 690,106 689,106 688,106 687,107 686,107 685,107 684,107 683,108 682,108 681,108 680,109 679,109 678,109 677,109 676,110 675,110 674,110 673,110 672,111 671,111 670,111 669,111 668,112 667,112 666,112 665,113 664,113 663,113 662,113 661,114 660,114 659,114 658,114 657,115 656,115 655,115 654,115 653,116 652,116 651,116 650,117 649,117 648,117 647,117 646,118 645,118 644,118 643,118 642,119 641,119 640,119 639,119 638,120 637,120 636,120 635,120 634,121 633,121 632,121 631,122 630,122 629,122 628,122 627,123 626,123 625,123 624,123 623,124 622,124 621,124 620,124 619,125 618,125 617,125 616,126 615,126 614,126 613,126 612,127 611,127 610,127 609,127 608,128 607,128 606,128 605,128 604,129 603,129 602,129 601,130 600,130 599,130 598,130 597,131 596,131 595,131 594,131 593,132 592,132 591,132 590,132 589,133 588,133 587,133 586,134 585,134 584,134 583,134 582,135 581,135 580,135 579,135 578,136 577,136 576,136 575,136 574,137 573,137 572,137 571,137 570,138 569,138 568,138 567,139 566,139 565,139 564,139 563,140 562,140 561,140 560,140 559,141 558,141 557,141 556,141 555,142 554,142 553,142 552,143 551,143 550,143 549,143 548,144 547,144 546,144 545,144 544,145 543,145 542,145 541,145 540,146 539,146 538,146 537,147 536,147 535,147 534,147 533,148 532,148 531,148 530,148 529,149 528,149 527,149 526,149 525,150 524,150 523,150 522,151 521,151 520,151 519,151 518,152 517,152 516,152 515,152 514,153 513,153 512,153 511,153 510,154 509,154 508,154 507,154 506,155 505,155 504,155 503,156 502,156 501,156 500,156 499,157 498,157 497,157 496,157 495,158 494,158 493,158 492,158 491,159 490,159 489,159 488,160 487,160 486,160 485,160 484,161 483,161 482,161 481,161 480,162 479,162 478,162 477,162 476,163 475,163 474,163 473,164 472,164 471,164 470,164 469,165 468,165 467,165 466,165 465,166 464,166 463,166 462,166 461,167 460,167 459,167 458,168 457,168 456,168 455,168 454,169 453,169 452,169 451,169 450,170 449,170 448,170 447,170 446,171 445,171 444,171 443,171 442,172 441,172 440,172 439,173 438,173 437,173 436,173 435,174 434,174 433,174 432,174 431,175 430,175 429,175 428,175 427,176 426,176 425,176 424,177 423,177 422,177 421,177 420,178 419,178 418,178 417,178 416,179 415,179 414,179 413,179 412,180 411,180 410,180 409,181 408,181 407,181 406,181 405,182 404,182 403,182 402,182 401,183 400,183 399,183 398,183 397,184 396,184 395,184 394,184 393,185 392,185 391,185 390,186 389,186 388,186 387,186 386,187 385,187 384,187 383,187 382,188 381,188 380,188 379,188 378,189 377,189 376,189 375,190 374,190 373,190 372,190 371,191 370,191 369,191 368,191 367,192 366,192 365,192 364,192 363,193 362,193 361,193 360,194 359,194 358,194 357,194 356,195 355,195 354,195 353,195 352,196 351,196 350,196 349,196 348,197 347,197 346,197 345,197 344,198 343,198 342,198 341,199 340,199 339,199 338,199 337,200 336,200 335,200 334,200 333,201 332,201 331,201 330,201 329,202 328,202 327,202 326,203 325,203 324,203 323,203 322,204 321,204 320,204 319,204 318,205 317,205 316,205 315,205 314,206 313,206 312,206 311,206 310,207 309,207 308,207 307,208 306,208 305,208 304,208 303,209 302,209 301,209 300,209 299,210 298,210 297,210 296,210 295,211 294,211 293,211 292,212 291,212 290,212 289,212 288,213 287,213 286,213 285,213 284,213 283,214 282,214 281,214 280,214 279,215 278,215 277,215 276,215 275,215 274,216 273,216 272,216 271,216 270,216 269,217 268,217 267,217 266,217 265,217 264,217 263,217 262,218 261,218 260,218 259,218 258,218 257,218 256,218 255,219 254,219 253,219 252,219 251,219 250,219 249,219 248,219 247,220 246,220 245,220 244,220 243,220 242,220 241,220 240,220 239,220 238,220 237,220 236,220 235,220 234,221 233,221 232,221 231,221 230,221 229,221 228,221 227,221 226,221 225,221 224,221 223,221 222,221 221,221 220,221 219,221 218,221 217,220 216,220 215,220 214,220 213,220 212,220 211,220 210,220 209,220 208,220 207,220 206,220 205,219 204,219 203,219 202,219 201,219 200,219 199,219 198,218 197,218 196,218 195,218 194,218 193,218 192,217 191,217 190,217 189,216 188,216 187,216 186,216 185,215 184,215 183,215 182,215 181,214 180,214 179,213 178,213 177,213 176,212 175,212 174,211 173,211 172,211 171,210 170,210 169,209 168,209 167,208 166,207 165,207 164,206 163,206 162,205 161,204 160,204 159,203 158,202 157,202 156,201 155,200 154,199 153,198 152,197 151,196 150,196 149,195 148,194 147,193 146,192 146,191 145,190 144,189 143,188 142,187 141,186 140,185 140,184 139,183 138,182 138,181 137,180 136,179 136,178 135,177 134,176 134,175 133,174 133,173 132,172 132,171 131,170 131,169 130,168 130,167 130,166 129,165 129,164 128,163 128,162 128,161 127,160 127,159 127,158 126,157 126,156 126,155 125,154 125,153 125,152 125,151 125,150 124,149 124,148 124,147 124,146 124,145 124,144 123,143 123,142 123,141 123,140 123,139 123,138 123,137 123,136 123,135 123,134 123,133 122,132 122,131 122,130 122,129 122,128 122,127 123,126 123,125 123,124 123,123 123,122 123,121 123,120 123,119 123,118 123,117 123,116 123,115 123,114 123,113 123,112 123,111 124,110 124,109 124,108 124,107 124,106 124,105 125,104 125,103 125,102 125,101 125,100 125,99 126,98 126,97 126,96 126,95 126,94 127,93 127,92 127,91 127,90 128,89 128,88 128,87 128,86 129,85 129,84 129,83 129,82 130,81 130,80 130,79 131,78 131,77 131,76 132,75 132,74 132,73 133,72 133,71 133,70 134,69 134,68 134,67 135,66 135,65 135,64 136,63 136,62 137,61 137,60 137,59 138,58 138,57 139,56 139,55 139,54 140,53 140,52 141,51 141,50 141,49 142,48 142,47 143,46 143,45 144,44 144,43 145,42 145,41 146,40 146,39 147,38 147,37 148,36 148,35 149,34 149,33 150,32 150,31 151,30 151,29 152,28 152,27 153,26 153,25 154,24 154,23 155,22 156,21 156,20 157,19 157,18 Z" fill="black"/>
</svg>
