<svg width="" height="" 
  viewBox="-14.5 -10 545 721" 
  xmlns="http://www.w3.org/2000/svg">
  <defs>
    <filter id="shadow" x="-20%" y="-20%" width="140%" height="140%">
      <feDropShadow dx="0" dy="0" stdDeviation="3"
      flood-color="black" flood-opacity="1"/>
    </filter>
  </defs>
  <g filter="url(#shadow)">
<path d="M106 182
A14 13 0 0 1 88 163
C85 156 85 153 90 148
C87 138 89 135 97 132
C88 119 98 112 103 112
C98 98 109 95 114 96
C113 80.5 125 80 130 82
C131 68 143 68 148 72
C151 61 164 62 168 68
C170 65 173 63 178 65
C176 49 189 48 194.5 51
C195 38 207 38 212 41
C214 33 225 31 230 36
C234 30 237 29 244 30
C246 27 248 25 252 25
V18H245V8H252V1H262V8H270V18H262V25
C270 24 272 28 273 30
C277 29 282 29 285 36
C295 30 302.5 37 304 41
C315 35 324 44 322 52
C337 48 339 59 338 64
C343 63 345 64 348 68
C356 60 366 64 368 72
C380 66 386 75 386 82
C400 78 404 90 401 96
C415 94 417 106 414 112
C427 115 424 128 419 132
C431 134 428 146 427 148
C432 154 432 157 430 163
A14 13 0 0 1 412 182
C403 187 400 188 392 185
C392 192 390 194 384 193
C336 173 308 167 257 166
C205 168 178 173 132 193
C125 194 123 192 124 184
C117 186 113 185 106 182Z
M152 112 
C152 112 152 112 152 112 
C152 105 154 103 158 100 
C155 97 154 95 155 91
C140 98 133 103 124.5 115 
C116 128 114 136 114 150 
C120 156 121 159 121.5 163 
C122 170 120 172 114 175
C122 176 128 178 130 166 
C127 162 126 157 128 153 
C130 149 133 146 139 146
C142 146 150 147 150 158 
C154 160 157 162 163 159.5 
C168 157 169 152 169 150 
C152 155 145 131 158 126
L159 121 
C154 119 153 117 152 112Z
M398 124
C402 135 403 141 403 150
C397 155 395 157 394.3 163
C394 170 397 172 403 175
C394 176 388 178 386 166
C391.5 158 389 150.5 382 148
C377 146 367 147 367 158
C363 160 360 162 354 159.5
C349 157 348 152 348 150
C365 155 373 132 359 126
C359 126 359 125 358 121
C362 119 365 117 365 112
C365 112 365 111 365 110
C365 105 362 102 358 100
C360 97 361 95 360 91
C380 100 389 108 398 124Z
M182 98
C180 103 180 109 179 115
C183 116 184 118 185 120
C198 120 203 142 187 146
C190 151 195 152 199.5 151
C205 149.5 207 146 207 141.5
C201 129 212 124 217 124.5
C227 125 229 133 227 139
C230 144 234 146 239 145.5
C243 145 246 143 249 137.5
C231 137 231 114 245 112
C245 112 246 105 253 104
C251 103 249 101 248.3 97.3
C248 93 249.3 91 250 90
L250 82
C247 76 248 74 250 70 
L250 62
C249 59 249 58 248 56
C228 55 209 64 197.5 75
C189 83 185 90 182 98Z
M266 88
L266 82
C269 76 268 74 266 70
L266 62
C267 59 267 58 268 56
C290 55 309 64 320 75
C329 84 331 90 334 98
C336 108 337 115 337 115
C333 116 332 117 331 120
C318 119 310 140 329 145
C326 149 324 151.5 318 151
C311 150 309 146 308 141.5
C311 132 307 126 300 125
C289 124 286 134 288 139
C286 144 283 146 278 145.5
C274 145 270 143 268 137.5
C284 137 284 114 272 112
C271 108 270 105 264 104
C266 103 267 102 268 100
C270 96 269 93 266 90
L266 88Z
M374 211
C376 214 377 217 373 217
C327 199 300 193 258 193
C210 194 185 201 144 217
C141 217 140 215 142 211
L136 199
C132 198 132 197 132 194
C178 175 205 169 258 167
C309 168 336 175 384 194
C384 197 382 199 380 199Z
M258 187.5L278 180L258 172L237 180Z
M190.5 195.5 L207 183 L186 180 L169 192Z 
M326 195.5 L347 192 L330 180 L309 183Z
M136 177.3
C139 174 139 172 140 168
C142 167.5 143 167.2 145 166
C147 169 152 171 154 171
L 136.3 177.7Z
M178.7 150.1 
C179 155 177 162 171.2 165.5
L192 160
C188 159 183 157 179.2 150Z
 M230 154.5 L209 157
 C213 155 215 151 216.5 146.5
 C219 146.5 219 146.5 221 146
 C223 150 226 152 230 154Z
 M248 154
 C254 151 257 146 258 140
 C259 148 263 152 268 154Z
 M285 155L308 157.5
 C302 154 300.5 150 300 147
 C298 147 297 147 295.5 146.5
 C294 150 291 152 285 154.5Z
 M324 160.5
 L344.5 165.5
 C337.5 160 338 156 337.7 150
 C335 156 330 159 324 160Z
 M362 171L382 178
 C377 172.5 377.5 171 377 168
 C375 167.5 375 167.5 372 166.3
 C369 169 367 170 362.1 170.5Z
M216 181A6 6 0 1 0 228 181A6 6 0 1 0 216 181 
M150 198 A6 6 0 1 0 162 198 A6 6 0 1 0 150 198
M354 198 A6 6 0 1 0 366 198 A6 6 0 1 0 354 198
M288 181 A6 6 0 1 0 300 181 A6 6 0 1 0 288 181
M164 134 A10 10 0 1 0 184 134 A10 10 0 1 0 164 134
M406 122 A6 6 0 1 0 418 122 A6 6 0 1 0 406 122
M343 92 A6 6 0 1 0 355 92 A6 6 0 1 0 343 92
M98 122 A6 6 0 1 0 110 122 A6 6 0 1 0 98 122
M93 142 A6 6 0 1 0 105 142 A6 6 0 1 0 93 142
M217 44 A6 6 0 1 0 229 44 A6 6 0 1 0 217 44
M347 110 A6 6 0 1 0 359 110 A6 6 0 1 0 347 110
M398 106 A6 6 0 1 0 410 106 A6 6 0 1 0 398 106
M411 142 A6 6 0 1 0 423 142 A6 6 0 1 0 411 142
M385 92 A6 6 0 1 0 397 92 A6 6 0 1 0 385 92
M352 74 A6 6 0 1 0 364 74 A6 6 0 1 0 352 74
M369 80 A6 6 0 1 0 381 80 A6 6 0 1 0 369 80
M334 76 A6 6 0 1 0 346 76 A6 6 0 1 0 334 76
M322 61 A6 6 0 1 0 334 61 A6 6 0 1 0 322 61
M305.5 49 A6 6 0 1 0 317.5 49 A6 6 0 1 0 305.5 49
M287 44 A6 6 0 1 0 299 44 A6 6 0 1 0 287 44
M252.5 96 A6 6 0 1 0 264.5 96 A6 6 0 1 0 252.5 96
M252 76 A6 6 0 1 0 264 76 A6 6 0 1 0 252 76
M252 56 A6 6 0 1 0 264 56 A6 6 0 1 0 252 56
M269 40 A6 6 0 1 0 281 40 A6 6 0 1 0 269 40
M235 40 A6 6 0 1 0 247 40 A6 6 0 1 0 235 40
M199.5 50 A6 6 0 1 0 211.5 50 A6 6 0 1 0 199.5 50
M183 60 A6 6 0 1 0 195 60 A6 6 0 1 0 183 60
M157 110 A6 6 0 1 0 169 110 A6 6 0 1 0 157 110
M161 92 A6 6 0 1 0 173 92 A6 6 0 1 0 161 92
M170 76 A6 6 0 1 0 182 76 A6 6 0 1 0 170 76
M152.5 74 A6 6 0 1 0 164.5 74 A6 6 0 1 0 152.5 74
M135 80 A6 6 0 1 0 147 80 A6 6 0 1 0 135 80
M119 92 A6 6 0 1 0 131 92 A6 6 0 1 0 119 92
M106 106 A6 6 0 1 0 118 106 A6 6 0 1 0 106 106
M91 166 A10 10 0 1 0 111 166 A10 10 0 1 0 91 166
M407 166 A10 10 0 1 0 427 166 A10 10 0 1 0 407 166
M248 122 A10 10 0 1 0 268 122 A10 10 0 1 0 248 122
M332 134 A10 10 0 1 0 352 134 A10 10 0 1 0 332 134
M156 270
A250 215 0 0 0 97 580
L124 555
A200 174 0 0 1 148 314
L173 338
A157 139 0 0 0 223 578
V612H258V582
C301 580 334 566 366 532
L340 508
C312 534 291 546 258 546
V518H300V490H258V469H300V442H223V540
A137 109 0 0 1 197 362
L258 421
L316 364
C330 374 338 381 349 398
L377 375
C367 358 358 349 343 337
L366 314
A200 174 0 0 1 390 554
L418 581
A250 215 0 0 0 359 270
L310 319
C270 308 244 308 205 320
L156 270Z 
M280 348
L258 371
L234 348
C251 344 265 344 280 348Z
M282 402
L258 425
L197 366
C162 392 153 420 154 446
L220 514
V439H303V472H261V487H303V521H261V543
C288 543 313 531 340 504
L370 532
C347 555 327 572 291 580
L344 634
C372 622 397 605 415.6 583.8
L385.5 554.5
C394 545 400 538 407.5 526Z
M117 410
C129 377 140 360 168 338
L148 318
C126 337 110 350 94 388Z"
fill="#C0C0C0" fill-rule="evenodd" clip-rule="evenodd"/>
<path d="M152 112 
C139 114 129 117 119.3 124
C116.3 130 114 136 114 150
C120 156 121 159 121.5 163
C122 170 120 172 114 175
C122 176 128 178 130 166
C127 162 126 157 128 153
C130 149 133 146 139 146
C142 146 150 147 150 158
C154 160 157 162 163 159.5
C168 157 169 152 169 150
C152 155 145 131 158 126
L159 121
C154 119 153 117 152 112Z
M398 124
C402 135 403 141 403 150
C397 155 395 157 394.3 163
C394 170 397 172 403 175
C394 176 388 178 386 166
C391.5 158 389 150.5 382 148
C377 146 367 147 367 158
C363 160 360 162 354 159.5
C349 157 348 152 348 150
C365 155 373 132 359 126
C359 126 359 125 358 121
C362 119 365 117 365 112
C378 114 388 117 398 124Z
M182 98
C180 103 180 109 179 115
C183 116 184 118 185 120
C198 120 203 142 187 146
C190 151 195 152 199.5 151
C205 149.5 207 146 207 141.5
C201 129 212 124 217 124.5
C227 125 229 133 227 139
C230 144 234 146 239 145.5
C243 145 246 143 249 137.5
C231 137 231 114 245 112
C245 112 246 105 253 104
C251 103 249 101 248.3 97.3
C248 93 249.3 91 250 90
L250 88
C225 84 195 90 182 98Z
M266 88 
C291 84 321 90 334 98
C336 108 337 115 337 115
C333 116 332 117 331 120
C318 119 310 140 329 145
C326 149 324 151.5 318 151
C311 150 309 146 308 141.5
C311 132 307 126 300 125
C289 124 286 134 288 139
C286 144 283 146 278 145.5
C274 145 270 143 268 137.5
C284 137 284 114 272 112
C271 108 270 105 264 104
C266 103 267 102 268 100
C270 96 269 93 266 90 
L266 88Z"
fill="none" stroke="#C0C0C0" stroke-width="3"/>
<ellipse cx="258" cy="449" rx="242" ry="232" fill="none"
stroke="#C0C0C0" stroke-width="38"/></g></svg>