<svg width="517" height="699" viewBox="0 0 517 699" fill="none" xmlns="http://www.w3.org/2000/svg">
<circle cx="174" cy="133.5" r="10" stroke="black" stroke-width="2"/>
<circle cx="412" cy="122.5" r="6" stroke="black" stroke-width="2"/>
<path d="M106.5 181.5C98.0239 184.333 93.0897 184.243 88 178C84.6972 172.143 84.635 168.857 88 163C83.719 156.456 84.1379 152.671 89.5 147.5C87.3595 138.02 89.2473 134.674 97 131.5C93.1498 127.549 91.5053 124.908 93.5 119C95.5918 114.532 97.6807 113.269 102.5 112.5C99.7951 106.824 99.4459 103.35 102.5 99.5C106.463 95.5791 109.136 94.9717 114.5 96C112.483 90.2607 112.946 87.2686 117.5 83C121.438 80.0669 124.182 80.0654 129.5 81.5C129.357 75.6536 130.264 72.3775 136 70C140.091 68.4195 142.701 68.9773 147.5 71.5C148.836 66.6399 150.68 64.3717 156 63C161.028 61.9272 163.535 63.374 167.5 67.5C170.407 64.9284 172.474 63.9987 178 64.5C176.812 58.975 176.911 55.8134 180.5 52.5C184.424 49.1903 188.144 49.4562 194 51C194.399 45.3203 195.775 43.1766 199.5 40.5C203.626 38.2418 206.54 38.9157 211.5 40.5C213.304 36.4242 215.007 34.7405 219.5 33C224.017 32.0282 226.277 32.925 230 35.5C234.171 30.0494 237.177 28.7014 243.5 30.5C245.888 26.8257 247.728 25.4392 252.5 25V17.5H245V8.5H252.5V1H262V8.5H270.5V17.5H262V25C266.969 23.7994 273.033 29.2912 272 30.5C272.647 29.4861 282.275 28.9073 285 35.5C288.052 33.7805 289.258 32.7873 295 33C300.466 34.3934 302.622 36.8932 304 41C307.024 37.9072 314.233 38.476 316.5 40C317.005 40.1224 323.422 44.7685 321.5 51.5C327.068 49.8726 329.744 49.7176 334.5 52.5C338.843 56.0198 339.415 58.7284 338 64.5C342.737 63.2 345.017 63.9162 348.5 67.5C351.842 63.4623 354.575 62.4322 359 63C363.938 63.6336 367.382 66.206 368.5 71.5C373.437 69.3352 376.868 68.9979 381.5 71.5C385.268 73.5354 386.769 76.5498 386 81.5C391.703 80.1636 393.967 80.9908 398 83.5C401.925 86.6275 402.283 89.7517 401 96C407.238 95.3571 409.878 96.6007 413.5 101C416.086 105.499 415.863 108.014 413.5 112.5C419.78 113.685 421.905 115.825 423.5 122C423.871 126.164 422.773 128.104 419 131.5C423.544 133.021 426.453 134.507 428 139C428.764 140.637 428.547 145.626 427 147.5C431.762 153.575 431.664 156.966 429 163C432.007 171.194 430.892 174.76 425.5 180C418.597 184.658 415.127 184.315 409 181.5C403.18 186.674 399.516 187.618 392 185C391.675 191.764 390.02 193.559 384 193C335.843 173.425 308.057 167.381 257 166C205.083 168.023 177.531 173.339 132 193C124.921 194.176 123.386 191.873 124.5 184C117.158 185.689 113.217 185.147 106.5 181.5Z" stroke="black" stroke-width="2"/>
<path d="M374 211C375.891 214.184 377.278 216.663 374 218.5C326.507 198.78 299.971 192.981 257.5 193C209.858 194.388 184.752 200.773 143.5 218.5C140.129 217.389 140.134 214.933 141.5 211M374 211L382 207.5L379.5 199M374 211L372 201.5L379.5 199M379.5 199C382.427 198.713 384.028 196.795 383.5 194C336.143 174.555 308.609 168.384 257.5 167C205.452 168.835 178.074 174.72 132.5 194C131.57 197.109 132.405 198.105 135.5 199M135.5 199L132.5 207.5L141.5 211M135.5 199L143.5 201.5L141.5 211M257.5 186L278 179L257.5 171.5L237 179L257.5 186ZM324.5 193L345 191.5L330 180.5L309.5 182.5L324.5 193ZM191.5 193.5L205.5 183L186.5 181L171 191.5L191.5 193.5Z" stroke="black" stroke-width="2"/>
<path d="M397 124.5C387.913 107.844 379.102 100.084 360 91.5C361.732 95.0893 358.371 100.144 357 100.5C358.229 100.085 365.063 104.574 365 110.5C365.012 111.215 364.993 111.879 364.938 112.5M397 124.5C400.103 134.845 401.258 140.548 402 150.5C396.782 154.521 394.982 157.4 393.5 163.5C393.865 169.699 395.49 172.173 400.5 175C388.757 176.203 384.227 173.962 387 165.5C390.039 155.457 390.322 151.13 383 148C374.888 145.192 370.213 147.452 366.5 157.5C363.349 163.787 360.264 164.136 354 160.5C349.689 157.996 348.243 155.823 347.5 150.5C355.946 151.481 359.289 150.212 363 145C365.285 141.774 364.5 136.5 364.5 136.5C364.5 136.5 363.671 130.365 358.5 129C359.428 126.091 358.717 124.545 356.5 122C362.266 119.186 364.539 116.972 364.938 112.5M397 124.5C385.521 117.481 378.501 114.853 364.938 112.5M151.5 112.5C138.026 114.579 131.001 117.159 119.5 124.5M181.96 98.5C180.38 103.387 179.53 108.637 179 115C182.523 116.459 183.653 117.74 184.5 120.5C190.167 120.574 191.963 121.782 194.5 124.5C197.917 129.34 198.444 132.079 197.5 137C195.485 141.787 193.634 143.836 187.5 145C189.455 151.184 192.159 152.091 199 150.5C206.444 148.945 208.306 146.39 206.5 140.5C204.767 136.997 204.515 135.042 206.5 131.5C211.342 124.915 215.474 124.577 222.5 126.5C228.184 128.981 228.983 132.389 228 140.5C231.825 144.905 234.478 146.159 240 146.5C246.491 146.363 248.1 143.687 248 137C243.211 136.576 239 133 239 133C235.427 129.444 235.304 126.987 236 122C237.204 116.602 239.128 114.488 245 112.5C245 112.5 245.563 108.838 247.5 107C249.008 105.215 250.884 104.674 254 104C251.057 103.677 248.998 101.518 248 98.5C246.929 95.2625 248.359 92.927 250 90V87.5M181.96 98.5C184.556 90.4667 189.127 83.412 197.5 74C213.947 60.2714 224.868 56.1136 248 56.5C250.825 61.6707 250.294 70.6319 250 70.5C249.017 71.2056 247.098 77.2561 250 80V87.5M181.96 98.5C196.604 90.9725 201.744 88.9926 212 88C226.849 87.3238 235.169 87.1972 250 87.5M266.5 87.5V80C268.534 76.3314 268.493 74.376 266.5 71V62C266.682 59.3859 267.138 58.1524 268.5 56.5C290.031 55.0441 308.537 63.9451 319.5 75C326.799 82.3606 331.013 88.1259 333.762 97.5M266.5 87.5V90C268.9 92.9311 269.751 95.5991 268 99.5C266.982 101.767 265.996 103.31 263.5 104C269.763 105.47 271.187 107.62 272 112.5C278.366 114.807 280.642 117.32 281 124.5C279.421 133.311 276.881 136.39 268 137C269.265 142.966 271.261 145.534 279 146.5C284.889 147.138 287.19 144.59 288 140.5C289.3 129.204 291.899 124.438 299.5 124.5C307.196 125.222 309.239 130.184 309 140.5C308.791 147.693 311.126 149.764 318.5 150.5C324.574 151.257 326.825 149.983 329 145C320.747 142.856 317.971 140.151 318.5 133C319.816 123.226 323.299 121.057 331 120.5C331.734 117.485 333.17 116.347 337 115C336.153 107.819 335.142 102.205 333.762 97.5M266.5 87.5C279.194 86.755 286.31 86.6899 299 87C312.207 88.0029 320.259 91.4093 333.762 97.5M135.5 177.5L135.706 177.036M135.706 177.036C137.927 173.894 138.898 172.061 139.5 168.5L145 166.5C147.015 168.802 150.739 170.092 155 170.5L135.706 177.036ZM179 150.5C177.866 154.661 176.533 161.631 171 165.5L191.5 160.5C186.709 157.731 182.789 155.571 179 150.5ZM209 156C213.341 152.874 214.963 150.787 216.5 146.5H220.5C223.065 150.384 225.41 151.916 230.5 154L209 156ZM248 154C253.765 148.998 255.828 146.038 257.5 140.5C260.337 146.717 262.721 149.608 268 154H248ZM285 154L308 156.5C302.942 153.474 301.084 151.374 300.5 146.5H296C292.52 150.817 290.007 152.281 285 154ZM324.5 160.5L344.5 165.5C339.231 160.141 337.84 156.628 338 149.5C334.362 155.493 331.398 157.9 324.5 160.5ZM361.5 170.5L381.5 177.5C377.682 174.372 376.54 172.43 377 168.5C374.311 168.702 373.088 168.094 371.5 165.5C368.808 168.531 366.592 169.603 361.5 170.5Z" stroke="black" stroke-width="2"/>
<circle cx="349" cy="92.5" r="6" stroke="black" stroke-width="2"/>
<circle cx="104" cy="122.5" r="6" stroke="black" stroke-width="2"/>
<circle cx="99" cy="141.5" r="6" stroke="black" stroke-width="2"/>
<circle cx="223" cy="43.5" r="6" stroke="black" stroke-width="2"/>
<circle cx="353" cy="110.5" r="6" stroke="black" stroke-width="2"/>
<circle cx="404" cy="106.5" r="6" stroke="black" stroke-width="2"/>
<circle cx="417" cy="141.5" r="6" stroke="black" stroke-width="2"/>
<circle cx="391" cy="91.5" r="6" stroke="black" stroke-width="2"/>
<circle cx="358" cy="73.5" r="6" stroke="black" stroke-width="2"/>
<circle cx="375" cy="80.5" r="6" stroke="black" stroke-width="2"/>
<circle cx="340" cy="75.5" r="6" stroke="black" stroke-width="2"/>
<circle cx="327" cy="60.5" r="6" stroke="black" stroke-width="2"/>
<circle cx="311" cy="49.5" r="6" stroke="black" stroke-width="2"/>
<circle cx="293" cy="44.5" r="6" stroke="black" stroke-width="2"/>
<circle cx="258" cy="95.5" r="6" stroke="black" stroke-width="2"/>
<circle cx="258" cy="76.5" r="6" stroke="black" stroke-width="2"/>
<circle cx="258" cy="56.5" r="6" stroke="black" stroke-width="2"/>
<circle cx="275" cy="40.5" r="6" stroke="black" stroke-width="2"/>
<circle cx="241" cy="40.5" r="6" stroke="black" stroke-width="2"/>
<circle cx="205" cy="49.5" r="6" stroke="black" stroke-width="2"/>
<circle cx="189" cy="60.5" r="6" stroke="black" stroke-width="2"/>
<circle cx="163" cy="110.5" r="6" stroke="black" stroke-width="2"/>
<circle cx="167" cy="91.5" r="6" stroke="black" stroke-width="2"/>
<circle cx="176" cy="75.5" r="6" stroke="black" stroke-width="2"/>
<circle cx="158" cy="73.5" r="6" stroke="black" stroke-width="2"/>
<circle cx="141" cy="80.5" r="6" stroke="black" stroke-width="2"/>
<circle cx="125" cy="91.5" r="6" stroke="black" stroke-width="2"/>
<circle cx="112" cy="106.5" r="6" stroke="black" stroke-width="2"/>
<circle cx="101" cy="166.5" r="10" stroke="black" stroke-width="2"/>
<circle cx="222.5" cy="180" r="5.5" stroke="black" stroke-width="2"/>
<circle cx="155.5" cy="198" r="5.5" stroke="black" stroke-width="2"/>
<circle cx="360.5" cy="198" r="5.5" stroke="black" stroke-width="2"/>
<circle cx="293.5" cy="180" r="5.5" stroke="black" stroke-width="2"/>
<circle cx="415" cy="166.5" r="10" stroke="black" stroke-width="2"/>
<circle cx="258" cy="122.5" r="10" stroke="black" stroke-width="2"/>
<circle cx="342" cy="133.5" r="10" stroke="black" stroke-width="2"/>
<ellipse cx="258" cy="449" rx="225" ry="216.5" stroke="black" stroke-width="2"/>
<ellipse cx="258.5" cy="449" rx="257.5" ry="248.5" stroke="black" stroke-width="2"/>
<path d="M156.5 269.5C90.0996 303.746 45.9998 371.999 45.9998 449C45.9998 499.666 66.7269 544.487 98.9998 580L124 555C86.3245 513.125 77.2695 480.94 81.5 427C88.8619 378.698 106.096 351.281 148 313.5L173 338C138.441 364.953 122.471 390.349 116 427C111.141 464.717 125.008 501.172 141.5 524C157.992 546.828 179.791 564.343 223 578.5V612H257.5V582C301.316 579.906 334.048 565.932 365.5 532.5L340.5 508C312.128 534.257 291.173 545.55 257.5 546.5V518.5H299.5V490H257.5V469H299.5V442H223V540.5C160.615 514.773 148.931 478.863 151.5 432.5C155.642 392.983 189.407 366.606 197 362L257.5 421L316.5 364C331.058 373.767 338.076 381.397 349 398L377 375C365.878 357.18 357.848 349.436 342 338L366 314.5C385.59 328.065 401.116 346.057 414.2 371C424.982 391.789 431.064 412.507 432.5 435.5C434.205 485.711 424.67 511.89 390 553.5L418.5 581C450.773 545.487 469.5 499.666 469.5 449C469.5 371.999 425.4 303.746 359 269.5L309.5 319C270.447 307.728 244.052 308.104 205 319.5L156.5 269.5Z" stroke="black" stroke-width="2"/>
<path d="M408.5 528.5L280 400L258 421L197 361.5C180.243 374.483 172.132 383.117 162.5 399.5C153.751 416.536 150.971 425.957 151.5 444.5L222.5 514V442H299.5V469H258V490H299.5V518.5H258V546.5C287.994 546.597 309.462 536.025 340.5 508L365.5 532.5C334.647 562.142 317.456 571.226 288 578.5L344.5 635C379.675 616.616 396.395 605.597 418.05 581.5L389.5 554C396.887 544.325 401.046 538.75 408.5 528.5Z" stroke="black" stroke-width="2"/>
<path d="M92.5 385.5L119.5 412.5C131.336 376.425 143.896 360.993 173 338.5L148 314C121.889 336.987 109.447 351.109 92.5 385.5Z" stroke="black" stroke-width="2"/>
<path d="M151.775 112.5C151.676 112.029 151.585 111.531 151.5 111C151.959 104.743 153.983 102.636 159 99.5C155.796 97.3581 154.846 95.1837 154.5 91C139.608 98.4505 132.712 103.307 124 115C116.142 127.906 114.321 136.232 114.5 152.5C119.689 156.301 120.979 158.647 122 163C122.001 169.706 120.328 172.425 114.5 175.5C124.142 175.451 128.008 173.934 129.5 166C127.064 162.313 126.373 159.964 127 155C129.95 147.988 133.155 145.976 139 146C146.359 146.261 148.851 149.624 151.5 157.5C154.176 162.418 157.358 162.344 164 159C168.523 156.706 168.703 154.09 167.5 149.5C167.5 149.5 161.71 151.193 158 149.5C152.686 146.576 151.95 143.585 151.5 137C151.493 130.958 153.344 128.889 158 126.5V121C154.278 118.736 152.682 116.797 151.775 112.5ZM151.775 112.5C138.964 114.189 131.789 116.985 119 124.5" stroke="black" stroke-width="2"/>
<path d="M280 348L257.5 371L234 348C251.023 343.319 261.858 343.678 280 348Z" stroke="black" stroke-width="2"/>
</svg>
