<?xml version="1.0" encoding="utf-8"?>
<!-- Generator: Adobe Illustrator 28.1.0, SVG Export Plug-In . SVG Version: 6.00 Build 0)  -->
<svg version="1.1" id="Layer_1" xmlns="http://www.w3.org/2000/svg" xmlns:xlink="http://www.w3.org/1999/xlink" x="0px" y="0px"
	 viewBox="0 0 300 246.3" style="enable-background:new 0 0 300 246.3;" xml:space="preserve">
<style type="text/css">
	.st0{fill:none;}
	.st1{fill:#DE9500;}
	.st2{fill:#FFFFFF;}
	.st3{fill:#00954C;}
	.st4{fill:#D7013E;}
</style>
<g>
	<path class="st0" d="M98.5,64.6c0.3-0.1,0.5-0.2,0.8-0.3c0.6-0.2,1.2-0.3,1.8-0.3c0,0,0,0,0,0c-0.6,0-1.3,0.1-1.8,0.3
		c1.1-6.4,4.8-12.3,10.4-17.1c1.5,4,4.3,7.7,8.1,10.9c0,0.1,0,0.2,0,0.3c0,3.6,3,6.6,6.6,6.6c0,0,0,0,0,0c-3.6,0-6.6-3-6.6-6.6
		c0-0.1,0-0.2,0-0.3c-3.8-3.2-6.6-6.9-8.1-10.9c-0.9-2.4-1.4-4.9-1.4-7.5c0-1.9,0.3-3.7,0.8-5.5c-4.7,0.8-8.9,2.7-12.1,5.8
		c-3.5,3.3-5.5,7.6-5.5,11.9C91.4,56.4,93.9,60.9,98.5,64.6z"/>
	<path class="st0" d="M182.2,58c0,0.1,0,0.2,0,0.3c0,3.6-2.9,6.6-6.5,6.6c0,0,0,0,0,0c3.6,0,6.6-3,6.6-6.6
		C182.3,58.2,182.3,58.1,182.2,58c3.9-3.2,6.7-6.9,8.2-10.9c5.6,4.8,9.4,10.7,10.4,17.1c-0.6-0.2-1.2-0.3-1.8-0.3c0,0,0,0-0.1,0
		c0.6,0,1.2,0.1,1.8,0.3c0.3,0.1,0.5,0.2,0.8,0.3c4.5-3.7,7-8.1,7-12.7c0-4.4-2-8.6-5.5-11.9c-3.2-3-7.4-5-12.1-5.8
		c0.5,1.8,0.8,3.6,0.8,5.5c0,2.6-0.5,5.1-1.4,7.5C188.8,51.1,186,54.8,182.2,58z"/>
	<path class="st0" d="M120.4,71.1C120.4,71.1,120.4,71.1,120.4,71.1c2.9,0,5.2-2.3,5.2-5.2c0-0.4,0-0.7-0.1-1c0,0-0.1,0-0.1,0
		c0.1,0.3,0.1,0.7,0.1,1C125.5,68.8,123.2,71.1,120.4,71.1z"/>
	<path class="st0" d="M112.7,68.5c0,1.2,0.9,2.1,2,2.2c0,0.2,0,0.4,0,0.6c0,2.9-2.3,5.2-5.2,5.2c0,0,0,0,0,0c2.9,0,5.2-2.3,5.2-5.2
		c0-0.2,0-0.4,0-0.6C113.6,70.5,112.7,69.6,112.7,68.5c0.1-1.2,1-2.2,2.2-2.2c0,0,0,0,0,0C113.7,66.3,112.7,67.2,112.7,68.5z"/>
	<path class="st0" d="M174.5,65.9c0-0.4,0-0.7,0.1-1c0,0-0.1,0-0.1,0C174.5,65.2,174.4,65.5,174.5,65.9c-0.1,2.9,2.3,5.2,5.1,5.2
		c0,0,0,0,0,0C176.8,71.1,174.5,68.8,174.5,65.9z"/>
	<path class="st0" d="M185.3,71.3c0-0.2,0-0.4,0-0.6c1.1-0.1,2-1,2-2.2c0-1.2-1-2.2-2.2-2.2c0,0,0,0,0,0c1.2,0,2.2,1,2.2,2.2
		c0,1.2-0.9,2.1-2,2.2C185.2,70.9,185.2,71.1,185.3,71.3c-0.1,2.9,2.3,5.2,5.1,5.2c0,0,0,0,0,0C187.6,76.4,185.3,74.1,185.3,71.3z"
		/>
	<path class="st0" d="M175.6,51.8c0.9,0,1.8,0.2,2.6,0.6c0,0,0,0,0,0C177.5,52,176.6,51.8,175.6,51.8
		C175.7,51.8,175.7,51.8,175.6,51.8z"/>
	<path class="st0" d="M121.7,52.3C121.7,52.3,121.7,52.3,121.7,52.3c0.8-0.3,1.7-0.5,2.6-0.5c0,0,0,0,0,0
		C123.4,51.8,122.5,52,121.7,52.3z"/>
	<path class="st0" d="M146.6,34v14.8c-1.9,1.2-3.2,3.3-3.2,5.7c0,3.3,2.5,6.1,5.7,6.5c0,0.3-0.1,0.7-0.2,1c-0.4,1.3-1.4,2.4-2.6,3
		c-0.6,0.3-1.3,0.5-1.9,0.5c0.7,0,1.4-0.2,2-0.5c1.2-0.6,2.2-1.7,2.6-3c0.1-0.3,0.2-0.7,0.2-1c-3.2-0.5-5.7-3.2-5.7-6.5
		c0-2.4,1.3-4.5,3.2-5.7V17.9c-17.4,1.1-31.5,10.6-31.5,21.7c0,1.1,0.1,2.1,0.4,3.2C123.8,37.8,134.6,34.5,146.6,34z"/>
	<path class="st0" d="M163.2,63.7c-0.1-0.2-0.1-0.4-0.2-0.6c1-0.5,1.6-1.6,1.2-2.7c-0.3-0.9-1.1-1.5-2-1.5c0.9,0.1,1.6,0.6,1.9,1.5
		c0.4,1.1-0.2,2.3-1.2,2.7C163,63.3,163,63.5,163.2,63.7c0.4,1.3,1.3,2.4,2.5,3c0.6,0.3,1.3,0.5,2,0.5c-0.7,0-1.3-0.2-2-0.5
		C164.5,66.1,163.6,65,163.2,63.7z"/>
	<path class="st0" d="M135.8,60.4c-0.4,1.1,0.2,2.3,1.2,2.7c0,0.2-0.1,0.4-0.2,0.6c-0.4,1.3-1.4,2.4-2.6,3c-0.6,0.3-1.3,0.5-2,0.5
		c0.7,0,1.4-0.2,2-0.5c1.2-0.6,2.2-1.7,2.6-3c0.1-0.2,0.1-0.4,0.2-0.6C136,62.7,135.5,61.5,135.8,60.4c0.4-0.9,1.1-1.4,2-1.5
		C136.9,58.9,136.1,59.5,135.8,60.4z"/>
	<path class="st0" d="M153.8,65.1c0.6,0.3,1.3,0.5,2,0.5C155.1,65.6,154.5,65.4,153.8,65.1c-1.2-0.6-2.1-1.7-2.5-3
		c-0.1-0.3-0.2-0.7-0.2-1c3.2-0.5,5.7-3.2,5.7-6.5c0-2.4-1.3-4.5-3.2-5.7V34c11.9,0.5,22.7,3.8,31,8.8c0.3-1.1,0.4-2.1,0.4-3.2
		c0-11.1-14.1-20.6-31.5-21.7v30.9c1.9,1.2,3.2,3.3,3.2,5.7c0,3.3-2.5,6.1-5.7,6.5c0,0.3,0.1,0.7,0.2,1
		C151.6,63.4,152.5,64.5,153.8,65.1z"/>
	<path class="st1" d="M188.9,97.4c-10.1-9.8-23.8-15.8-38.9-15.8c-15.1,0-28.8,6-38.9,15.8H0l150,148.9L300,97.4
		C300,97.4,188.9,97.4,188.9,97.4z M150,86.8c27.9,0,50.7,22.7,50.7,50.7c0,27.9-22.7,50.7-50.7,50.7c-27.9,0-50.7-22.7-50.7-50.7
		C99.3,109.5,122.1,86.8,150,86.8z M245.1,144.5l-21.1,21l-21.1,21l-21.1,21l-21.1,21L150,238.9l-10.6-10.5l-21.1-21l-21.1-21
		l-21.1-21l-21.1-21l-21.1-21l-21.1-21h21.1h21.1H76h21.1h9.2c-4,4.9-7.1,10.6-9.2,16.6c-2,5.7-3.1,11.9-3.1,18.3
		c0,6.4,1.1,12.5,3.1,18.3c3.9,11.3,11.4,21,21.1,27.7c6.2,4.3,13.4,7.4,21.1,8.9c3.4,0.7,7,1,10.6,1c3.6,0,7.1-0.4,10.6-1
		c7.7-1.5,14.9-4.6,21.1-8.9c9.7-6.7,17.2-16.4,21.1-27.7v0c2-5.7,3.1-11.9,3.1-18.3c0-6.4-1.1-12.5-3.1-18.3
		c-2.1-6.1-5.2-11.7-9.2-16.6h9.2H224h21.1h21.1h21.1l-21.1,21L245.1,144.5z"/>
	<path class="st2" d="M149,131.8h4.2v2.7h5.3c2.1,0,2.5-3.3,2.5-3.3l0-1v-16.7h-14.9v20.9h2.9V131.8z"/>
	<path class="st2" d="M161,145c0,0-0.2-2.9-1.9-2.9h-5.9v2.2H149v-2.2h-2.9v20.4H161L161,145L161,145z"/>
	<path class="st2" d="M179.6,150c0-6-4.9-7.9-5.4-7.9h-7.4c0.1,0.2,0.6,1.4,0.7,2.6h0v17.8h7.1c0.1,0,0.1-0.1,0.2-0.1
		c2.1,0,4.1-5.5,4.4-6.6h-4.4V150L179.6,150L179.6,150z"/>
	<path class="st2" d="M174.7,134.6c2.3,0,4.9-7.1,4.9-7.1v0h-4.8v-5.8h4.8c0-6.2-5.1-8-5.2-8.1h-6.9v17.6c0,1.5-0.9,3.1-1,3.3h8.1
		L174.7,134.6z"/>
	<polygon class="st2" points="138.9,113.6 126.6,113.6 126.6,121.3 130.8,121.3 130.8,127.6 126.6,127.6 126.6,134.6 138.9,134.6 	
		"/>
	<path class="st2" d="M150,188.2c27.9,0,50.7-22.7,50.7-50.7c0-28-22.7-50.7-50.7-50.7c-27.9,0-50.7,22.7-50.7,50.7
		C99.3,165.4,122.1,188.2,150,188.2z M115.8,162.5h5.1v-7.2h-5.1v-6.3h5.1v-6.8h-5.1v-7.5h5.1v-6.9h-5.1v-6.4h5.1v-7.7h-5.1v-7.1
		h23.1v-3.9c-0.1-0.6-0.3-1.5-1.4-1.5h-1.7v-7.4l2.9,0c4.1,0,7.5,1.8,7.5,8.7v4.1h15v0c0,0,1.4-5-5.7-5c-6.4,0-6.5,2.3-6.5,2.3v-6.6
		c0,0,2.3-2.1,7.2-2.1c4.9,0,11.7,1.9,11.7,11.1v0.2h9.2c8.5,3.7,9.4,15.1,9.4,15.2h4.3v5.8h-4.9l0,0c0,7.5-4.7,10.2-4.7,10.2
		c4.9,2.6,5.1,11.9,5.1,12.3h4.5v5.8h-4.8c-1,9.9-8.2,13-8.2,13h-10.2c0,1.8-0.3,11.4-11.8,11.4c0,0-5.6-0.4-7-2v-6.7
		c0,0,1.3,2.2,5.9,2.2c4.6,0,6.4-1.6,6.4-5H146l0,0.9v2.6c0,4.8-4.3,6.8-6.2,6.8h-4.6v-7.4h2.3c0,0,1.1,0.1,1.1-1.1v-1.8h-22.7
		L115.8,162.5L115.8,162.5z"/>
	<polygon class="st2" points="138.9,142.1 126.6,142.1 126.6,148.9 130.8,148.9 130.8,155.2 126.6,155.2 126.6,162.5 138.9,162.5 	
		"/>
	<path class="st3" d="M138.5,170.6c0,1.2-1.1,1.1-1.1,1.1h-2.3v7.4h4.6c1.9,0,6.2-2,6.2-6.8v-2.6l0-0.9H161c0,3.4-1.8,5-6.4,5
		c-4.6,0-5.9-2.2-5.9-2.2v6.7c1.4,1.5,7,2,7,2c11.5,0,11.8-9.6,11.8-11.4h10.2c0,0,7.3-3.1,8.2-13h4.8V150h-4.5
		c0-0.4-0.2-9.7-5.1-12.3c0,0,4.7-2.7,4.7-10.2l0,0h4.9v-5.8h-4.3c0,0-0.9-11.4-9.4-15.2h-9.2v-0.2c0-9.2-6.7-11.1-11.7-11.1
		c-4.9,0-7.2,2.1-7.2,2.1v6.6c0,0,0.1-2.3,6.5-2.3c7.1,0,5.7,5,5.7,5v0h-15v-4.1c0-6.9-3.5-8.7-7.5-8.7l-2.9,0v7.4h1.7
		c1.2,0,1.4,0.9,1.4,1.5v3.9h-23.1v7.1h5.1v7.7h-5.1v6.4h5.1v6.9h-5.1v7.5h5.1v6.8h-5.1v6.3h5.1v7.2h-5.1v6.4h22.7L138.5,170.6
		L138.5,170.6z M179.3,155.8c-0.4,1.1-2.3,6.6-4.4,6.6c-0.1,0-0.2,0-0.2,0.1h-7.1v-17.8h0c-0.1-1.2-0.6-2.4-0.7-2.6h7.4
		c0.6,0.1,5.4,2,5.4,7.9h-4.7v5.8H179.3z M167.5,131.3v-17.6h6.9c0.1,0,5.2,1.8,5.2,8.1h-4.8v5.8h4.8v0c0,0-2.6,7.1-4.9,7.1l-0.2,0
		h-8.1C166.6,134.3,167.5,132.7,167.5,131.3z M146.1,113.6H161v16.7l0,1c0,0-0.4,3.3-2.5,3.3h-5.3v-2.7H149v2.7h-2.9V113.6z
		 M146.1,142.1h2.9v2.2h4.2v-2.2h5.9c1.6,0,1.9,2.9,1.9,2.9v17.4h-14.9L146.1,142.1L146.1,142.1z M126.6,127.6h4.2v-6.4h-4.2v-7.7
		h12.3v20.9h-12.3C126.6,134.6,126.6,127.6,126.6,127.6z M126.6,162.5v-7.2h4.2v-6.4h-4.2v-6.8h12.3v20.4H126.6z"/>
	<polygon class="st3" points="33.8,102.6 33.8,123.6 54.9,144.5 54.9,102.6 	"/>
	<polygon class="st2" points="12.7,102.6 33.8,123.6 33.8,102.6 	"/>
	<path class="st3" d="M94.1,137.5c0-6.4,1.1-12.5,3.1-18.3v-16.6H76v62.9l21.1,21v-30.7C95.2,150,94.1,143.9,94.1,137.5z"/>
	<polygon class="st2" points="54.9,102.6 54.9,144.5 76,165.5 76,102.6 	"/>
	<path class="st3" d="M118.3,183.5v24l21.1,21v-36.1C131.7,190.9,124.6,187.8,118.3,183.5z"/>
	<path class="st2" d="M97.2,155.8v30.7l21.1,21v-24C108.6,176.8,101.1,167.1,97.2,155.8z"/>
	<path class="st2" d="M106.4,102.6h-9.2v16.6C99.3,113.1,102.4,107.5,106.4,102.6z"/>
	<path class="st3" d="M160.6,192.4v36.1l21.1-21v-24C175.5,187.8,168.3,190.9,160.6,192.4z"/>
	<path class="st2" d="M150,193.4c-3.6,0-7.1-0.3-10.6-1v36.1l10.6,10.5l10.6-10.5v-36.1C157.1,193,153.6,193.4,150,193.4z"/>
	<path class="st3" d="M202.8,102.6v16.6c2,5.7,3.1,11.9,3.1,18.3c0,6.4-1.1,12.5-3.1,18.3v30.7l21.1-21v-62.9L202.8,102.6
		L202.8,102.6z"/>
	<path class="st2" d="M202.8,155.8c-3.9,11.3-11.4,21-21.1,27.7v24l21.1-21V155.8L202.8,155.8z"/>
	<path class="st2" d="M193.6,102.6c4,4.9,7.1,10.6,9.2,16.6v-16.6H193.6z"/>
	<polygon class="st3" points="245.1,102.6 245.1,144.5 266.2,123.6 266.2,102.6 	"/>
	<polygon class="st2" points="224,102.6 224,165.5 245.1,144.5 245.1,102.6 	"/>
	<polygon class="st2" points="266.2,102.6 266.2,123.6 287.3,102.6 	"/>
	<path class="st4" d="M148.8,62.1c0.1-0.3,0.2-0.7,0.2-1c-3.2-0.5-5.7-3.2-5.7-6.5c0-2.4,1.3-4.5,3.2-5.7V34
		c-11.9,0.5-22.7,3.8-31,8.8c0,0,0,0,0,0c0.8,3.4,3,6.6,6.2,9.4c0.8-0.3,1.7-0.5,2.6-0.5c0,0,0,0,0,0c0,0,0,0,0,0
		c3.6,0,6.6,3,6.6,6.6c0,2.6-1.5,4.9-3.7,5.9l0,0.1c0.6,1.2,1.7,2.2,3,2.6c0.6,0.2,1.3,0.3,1.9,0.3c0.7,0,1.3-0.2,2-0.5
		c1.2-0.6,2.2-1.7,2.6-3c0.1-0.2,0.1-0.4,0.2-0.6c-1-0.5-1.6-1.6-1.2-2.7c0.3-0.9,1.1-1.5,2-1.5c0.3,0,0.6,0,0.9,0.1
		c1.2,0.4,1.8,1.6,1.4,2.8c-0.1,0.4-0.4,0.8-0.7,1c0.6,1.2,1.6,2.1,2.9,2.5c0.6,0.2,1.3,0.3,1.9,0.3c0.7,0,1.3-0.2,1.9-0.5
		C147.4,64.5,148.3,63.4,148.8,62.1z"/>
	<path class="st4" d="M117.7,58.3c0-0.1,0-0.2,0-0.3c-3.8-3.2-6.6-6.9-8.1-10.9c-5.6,4.8-9.4,10.7-10.4,17.1
		c0.6-0.2,1.2-0.3,1.8-0.3c0,0,0,0,0,0c0,0,0,0,0.1,0c3.6,0,6.6,3,6.6,6.6c0,1.7-0.7,3.3-1.7,4.4c0.9,0.9,2.2,1.4,3.6,1.4
		c2.9,0,5.2-2.4,5.2-5.2c0-0.2,0-0.4,0-0.6c-1.1-0.1-2-1-2-2.2c0-1.2,1-2.2,2.2-2.2c0,0,0,0,0,0c0,0,0,0,0,0c1.2,0,2.2,1,2.2,2.2
		c0,0.4-0.1,0.9-0.4,1.2c0.9,0.9,2.2,1.4,3.5,1.4c2.8,0,5.2-2.4,5.2-5.2c0-0.4,0-0.7-0.1-1c-0.3,0-0.7,0.1-1,0.1c0,0,0,0,0,0
		c0,0,0,0,0,0C120.7,64.9,117.7,62,117.7,58.3z"/>
	<path class="st4" d="M153.4,48.8c1.9,1.2,3.2,3.3,3.2,5.7c0,3.3-2.5,6.1-5.7,6.5c0,0.3,0.1,0.7,0.2,1c0.4,1.3,1.4,2.4,2.6,3
		c0.6,0.3,1.3,0.5,1.9,0.5c0.7,0,1.3,0,2-0.3c1.3-0.4,2.3-1.3,2.9-2.5c-0.3-0.3-0.6-0.6-0.7-1c-0.4-1.2,0.2-2.4,1.4-2.8
		c0.3-0.1,0.6-0.1,0.9-0.1c0.9,0,1.7,0.6,2,1.5c0.4,1.1-0.2,2.3-1.2,2.7c0,0.2,0.1,0.4,0.2,0.6c0.4,1.3,1.4,2.4,2.6,3
		c0.6,0.3,1.3,0.5,2,0.5c0.7,0,1.3,0,1.9-0.3c1.3-0.4,2.4-1.4,3-2.6l0-0.1c-2.2-1.1-3.7-3.3-3.7-5.9c0-3.6,3-6.6,6.6-6.6
		c0,0,0,0,0,0c0,0,0,0,0,0c0.9,0,1.8,0.2,2.6,0.5c3.2-2.8,5.3-6,6.2-9.4c0,0,0,0,0,0c-8.3-5.1-19.1-8.3-31-8.8V48.8z"/>
	<path class="st4" d="M200.8,64.3c-1.1-6.4-4.8-12.3-10.4-17.1c-1.5,4-4.3,7.7-8.1,10.9c0,0.1,0,0.2,0,0.3c0,3.6-3,6.6-6.6,6.6
		c0,0,0,0,0,0c0,0,0,0-0.1,0c-0.3,0-0.7,0-1-0.1c-0.1,0.3-0.1,0.7-0.1,1c0,2.9,2.3,5.2,5.2,5.2c1.3,0,2.6-0.5,3.5-1.4
		c-0.2-0.3-0.4-0.8-0.4-1.2c0-1.2,1-2.2,2.2-2.2c0,0,0,0,0,0s0,0,0,0c1.2,0,2.2,1,2.2,2.2c0,1.2-0.9,2.1-2,2.2c0,0.2,0,0.4,0,0.6
		c0,2.9,2.3,5.2,5.2,5.2c1.4,0,2.6-0.6,3.6-1.4c-1.1-1.2-1.7-2.7-1.7-4.4c0-3.6,3-6.6,6.6-6.6c0,0,0,0,0,0c0,0,0,0,0.1,0
		C199.6,64,200.2,64.1,200.8,64.3z"/>
	<path class="st1" d="M94.5,70.1c0,0.1,0,0.3,0,0.5c0,3.6,3,6.6,6.6,6.6c0.7,0,1.4-0.1,2.1-0.3c0.5,1.1,2.3,3.8,6.5,3.8
		c-0.3,0.2-0.5,0.4-0.8,0.6c-0.7,0.5-1.7,2-0.6,3.7c0.5,0.8,1.3,1.2,2.2,1.2c0.3,0,0.6-0.1,0.9-0.1l3.4,4.6l0.7-0.5
		c10.1-7.4,22.1-11.3,34.6-11.3s24.5,3.9,34.6,11.3l0.7,0.5l3.4-4.6c0.3,0.1,0.6,0.1,0.9,0.1c0.9,0,1.7-0.4,2.2-1.2
		c1.1-1.7,0.1-3.2-0.6-3.7c-0.3-0.2-0.5-0.4-0.8-0.6c4.2-0.1,5.9-2.8,6.5-3.8c0.7,0.2,1.4,0.3,2.1,0.3c3.6,0,6.6-3,6.6-6.6
		c0-0.2,0-0.3,0-0.5c6.4-5,9.9-11.5,9.9-18.3c0-6.3-2.7-12.3-7.7-16.9c-5.3-5-12.4-7.8-20.3-8c-6.1-8.5-18-14.6-32.2-15.8
		c0-2.4-1.6-4.4-3.8-5.1v-1l2.6,0l0-3l-2.6,0V0L150,0l-1.5,0v2l-2.6,0l0,3l2.6,0v1c-2.2,0.7-3.8,2.7-3.8,5.1
		c-14.1,1.3-26.1,7.4-32.2,15.8c-7.9,0.2-15,3-20.3,8c-4.9,4.6-7.7,10.6-7.7,16.9C84.6,58.7,88.2,65.1,94.5,70.1z M190.3,47.1
		c0.9-2.4,1.4-4.9,1.4-7.5c0-1.9-0.3-3.7-0.8-5.5c4.7,0.8,8.9,2.7,12.1,5.8c3.6,3.3,5.5,7.6,5.5,11.9c0,4.6-2.5,9-7,12.7
		c-0.3-0.1-0.5-0.2-0.8-0.3c-0.6-0.2-1.2-0.3-1.8-0.3c0,0,0,0,0,0c-3.6,0-6.6,3-6.6,6.6c0,1.7,0.7,3.3,1.7,4.4
		c-0.9,0.9-2.2,1.4-3.6,1.4c0,0,0,0,0,0c-2.9,0-5.2-2.3-5.2-5.2c0-0.2,0-0.4,0-0.6c1.1-0.1,2-1,2-2.2c0-1.2-1-2.2-2.2-2.2
		c0,0,0,0,0,0c-1.2,0-2.2,1-2.2,2.2c0,0.4,0.1,0.9,0.4,1.2c-0.9,0.9-2.2,1.4-3.5,1.4c0,0,0,0,0,0c-2.9,0-5.2-2.3-5.2-5.2
		c0-0.4,0-0.7,0.1-1c0,0,0.1,0,0.1,0c0.3,0,0.7,0.1,1,0.1c0,0,0,0,0.1,0c3.6,0,6.5-3,6.5-6.6c0-0.1,0-0.2,0-0.3
		C186,54.8,188.8,51.1,190.3,47.1z M156.6,54.5c0-2.4-1.3-4.5-3.2-5.7V17.9c17.4,1.1,31.5,10.6,31.5,21.7c0,1.1-0.1,2.1-0.4,3.2
		c0,0,0,0,0,0c-0.8,3.4-3,6.6-6.2,9.4c0,0,0,0,0,0c-0.8-0.4-1.7-0.6-2.6-0.6c0,0,0,0,0,0c-3.6,0-6.6,3-6.6,6.6
		c0,2.6,1.5,4.9,3.7,5.9l0,0.1c-0.6,1.2-1.7,2.2-3,2.6c-0.6,0.2-1.3,0.3-1.9,0.3c-0.7,0-1.4-0.2-2-0.5c-1.2-0.6-2.2-1.7-2.6-3
		c-0.1-0.2-0.1-0.4-0.2-0.6c1-0.5,1.6-1.6,1.2-2.7c-0.3-0.9-1.1-1.4-1.9-1.5c-0.3,0-0.6,0-0.9,0.1c-1.2,0.4-1.8,1.6-1.4,2.8
		c0.1,0.4,0.4,0.8,0.7,1c-0.6,1.2-1.6,2.1-2.9,2.5c-0.6,0.2-1.3,0.3-2,0.3c-0.7,0-1.4-0.2-2-0.5c-1.2-0.6-2.2-1.7-2.6-3
		c-0.1-0.3-0.2-0.7-0.2-1C154.1,60.6,156.6,57.8,156.6,54.5z M146.6,17.9v30.9c-1.9,1.2-3.2,3.3-3.2,5.7c0,3.3,2.5,6.1,5.7,6.5
		c0,0.3-0.1,0.7-0.2,1c-0.4,1.3-1.4,2.4-2.6,3c-0.6,0.3-1.3,0.5-2,0.5c-0.7,0-1.3,0-1.9-0.3c-1.3-0.4-2.3-1.3-2.9-2.5
		c0.3-0.3,0.6-0.6,0.7-1c0.4-1.2-0.2-2.4-1.4-2.8c-0.3-0.1-0.6-0.1-0.9-0.1c-0.9,0.1-1.6,0.6-1.9,1.5c-0.4,1.1,0.2,2.3,1.2,2.7
		c0,0.2-0.1,0.4-0.2,0.6c-0.4,1.3-1.4,2.4-2.6,3c-0.6,0.3-1.3,0.5-2,0.5c-0.7,0-1.3,0-1.9-0.3c-1.3-0.4-2.4-1.4-3-2.6l0-0.1
		c2.2-1.1,3.7-3.3,3.7-5.9c0-3.6-3-6.6-6.6-6.6c0,0,0,0,0,0c-0.9,0-1.8,0.2-2.6,0.6c0,0,0,0,0,0c-3.2-2.8-5.3-6-6.2-9.4c0,0,0,0,0,0
		c-0.3-1.1-0.4-2.1-0.4-3.2C115.1,28.5,129.2,19,146.6,17.9z M96.9,39.9c3.2-3,7.4-5,12.1-5.8c-0.5,1.8-0.8,3.6-0.8,5.5
		c0,2.6,0.5,5.1,1.4,7.5c1.5,4,4.3,7.7,8.1,10.9c0,0.1,0,0.2,0,0.3c0,3.6,2.9,6.6,6.6,6.6c0,0,0,0,0,0c0.3,0,0.7,0,1-0.1
		c0,0,0.1,0,0.1,0c0.1,0.3,0.1,0.7,0.1,1c0,2.9-2.3,5.2-5.2,5.2c0,0,0,0,0,0c-1.3,0-2.6-0.5-3.5-1.4c0.2-0.3,0.4-0.8,0.4-1.2
		c0-1.2-1-2.2-2.2-2.2c0,0,0,0,0,0c-1.2,0-2.2,1-2.2,2.2c0,1.2,0.9,2.1,2,2.2c0,0.2,0,0.4,0,0.6c0,2.9-2.3,5.2-5.2,5.2c0,0,0,0,0,0
		c-1.4,0-2.6-0.6-3.6-1.4c1.1-1.2,1.7-2.7,1.7-4.4c0-3.6-3-6.6-6.6-6.6c0,0,0,0-0.1,0c-0.6,0-1.2,0.1-1.8,0.3
		c-0.3,0.1-0.5,0.2-0.8,0.3c-4.5-3.7-7-8.1-7-12.7C91.4,47.5,93.4,43.3,96.9,39.9z"/>
</g>
</svg>
