<?xml version="1.0" encoding="utf-8"?>
<!-- Generator: Adobe Illustrator 24.1.2, SVG Export Plug-In . SVG Version: 6.00 Build 0)  -->
<svg version="1.1" id="Слой_1" xmlns="http://www.w3.org/2000/svg" xmlns:xlink="http://www.w3.org/1999/xlink" x="0px" y="0px"
	 viewBox="0 0 417.2 480" style="enable-background:new 0 0 417.2 480;" xml:space="preserve">
<style type="text/css">
	.st0{fill:none;}
	.st1{fill:#080A8C;}
	.st2{fill:#F0D133;}
	.st3{fill:#FFFFFF;}
	.st4{fill:#EE070C;}
	.st5{fill:#E69C0E;}
</style>
<path class="st0" d="M113.9,192.4L19.8,91.5c4.7,18.3,11.3,35.2,20.3,52.4c14.4,27.4,33,52.6,53,76.2
	C98.8,210,105.9,200.7,113.9,192.4z"/>
<path d="M417.2,381.5c-7.1-6.4-13.9-13-20.6-19.7c-3.8-3.9-7.6-7.8-11.3-11.8c-3.8-4.1-7.4-8-10.9-11.9
	c-8.8-9.7-18.6-18.5-29.6-25.6c-0.9-0.6-1.9-1.2-2.9-1.8c1.5-7.9,2.2-16.1,2.2-24.5c0-51.3-28.8-95.8-71.1-118.4
	c1.5-1.3,2.7-2.9,3.4-4.8c1.4-3.9,0.8-9.2-2.5-12l9.7-2.2l-5.5-9.4c6-0.1,10.7-6.8,10.2-12.8c4.6,0.1,9.1-0.5,13.6-1.6
	c4-1,6-3.9,6.5-7.1c0.2-1.7,0.1-3.1-0.4-4.3c3.3-1.7,5.6-5.2,5.6-9.2c0-3-1.3-5.8-3.4-7.6c1.4-1.7,2.2-3.9,2.2-6.3
	c0-3.5-1.7-6.6-4.4-8.4c0.7-1.4,1-2.9,1-4.5c0-4.6-3.1-8.5-7.3-9.8c0.3-1,0.4-2,0.4-3c0-5.7-4.6-10.3-10.3-10.3
	c-0.9,0-1.8,0.1-2.6,0.3c-0.4-5.3-4.8-9.5-10.3-9.5c-3,0-5.7,1.3-7.6,3.3c0.4-1.1,0.6-2.2,0.6-3.4c0-5.7-4.6-10.3-10.3-10.3
	c-5.2,0-9.5,3.8-10.2,8.8c-1.9-2.4-4.8-3.9-8.1-3.9c-2,0-3.9,0.6-5.5,1.6v-0.7c0-5.7-4.6-10.3-10.3-10.3c-2.5,0-4.9,0.9-6.7,2.5
	c-1.5-2.7-4-4.8-7-5.9v-6.1h9.3v-8.4h-9.3V0h-8.4v12.3h-9.3v8.4h9.3v6.1c-3,1-5.4,3.2-6.9,5.9c-1.8-1.5-4.1-2.5-6.7-2.5
	c-5.7,0-10.3,4.6-10.3,10.3v0.7c-1.6-1-3.5-1.6-5.5-1.6c-3.3,0-6.2,1.5-8.1,3.9c-0.7-5-5-8.8-10.2-8.8c-5.7,0-10.3,4.6-10.3,10.3
	c0,1.2,0.2,2.3,0.6,3.4c-1.9-2-4.6-3.3-7.6-3.3c-5.4,0-9.9,4.2-10.3,9.5c-0.8-0.2-1.7-0.3-2.6-0.3c-5.7,0-10.3,4.6-10.3,10.3
	c0,1,0.2,2.1,0.4,3c-4.2,1.3-7.3,5.2-7.3,9.8c0,1.6,0.4,3.2,1,4.5c-2.7,1.9-4.4,4.9-4.4,8.4c0,2.4,0.8,4.6,2.2,6.3
	c-2.1,1.9-3.4,4.6-3.4,7.6c0,4,2.3,7.4,5.6,9.2c-0.5,1.2-0.6,2.6-0.4,4.3c0.4,3.2,2.5,6.1,6.5,7.1c4.4,1.1,9,1.7,13.6,1.6
	c-0.5,6.1,4.2,12.7,10.2,12.8l-5.5,9.4l9.7,2.2c-3.3,2.7-3.9,8.1-2.5,12c0.7,1.9,1.9,3.5,3.4,4.8c-5.5,2.9-10.7,6.2-15.7,9.8
	l-98-105.2c9.7-14-9-29.7-21.7-16.2l-6.8,7.3c-9,9.6-2.3,26.8,11,24.2C6.2,124-2.8,165.1,8.4,201.4c2.2,6.8,2.7,14.1,1.9,21.2
	c-0.7,6.9-2.1,13.2-3.4,19.5c-3.3,15.7-5.3,31.8-1.1,47.5c1.3,4.7,3,10,5,15.5c2.7,7.5,6.2,14.6,8.8,22.1
	c3.6,10.3,8.3,14.7,17.3,20.5c13.8,8.9,25.9,20.8,36,33.6c4.3,5.4,7.7,10.7,10.3,15.9l0.1,0.1c7.6,12.6,21.1,28.4,36.7,31.4
	c19.4,11.8,35,27.4,50.3,44c16.3,7.7,34.3,8.7,51.9,5.7c20-3.4,41.5-12.1,63.4-24.7c13.7-7.9,26.6-16.6,39.4-25.3
	c3.6-2.4,7.1-4.8,10.6-7.2l52.6,53.4l19.5-12.8l-52.3-53.1C374.6,397.1,394.5,387.4,417.2,381.5L417.2,381.5z M393.8,364.6
	c1.1,1.1,2.2,2.3,3.4,3.4c-41.9,1.1-75,24.3-107.9,47.5c-3.4,2.4-6.8,4.8-10.1,7.1c-13.8,8.3-28,16.5-42.9,22.5
	c-14.8,6-30.4,10-47.1,10c1.4-6.3,2-12.7,2-19c23.1-5,44.9-13.7,65.8-24.4c21.2-10.8,41.5-23.5,61.5-36.2
	c10.2-5.6,20.5-10.6,31.3-14.5c10.6-3.8,21.6-6.5,33.5-7.4C386.7,357.3,390.2,361,393.8,364.6z M371.4,340.8
	c3.7,4.1,7.4,8.1,11,11.9l0.3,0.3c-11.8,0.9-22.7,3.6-33.1,7.4c-10.8,3.9-21.1,9-31.4,14.6c-20,12.7-40.3,25.4-61.5,36.1
	c-20.9,10.6-42.6,19.4-65.6,24.3c0-1.4-0.1-2.9-0.2-4.3c-0.5-8.1-2.2-16.1-5.1-23.9c19.6-4.8,37.3-13.9,55.2-23.1l0.7-0.4l0.9-0.5
	c37.8-23.1,76.7-46.9,123-48.6C367.6,336.8,369.5,338.8,371.4,340.8L371.4,340.8z M365,334.2c-46.3,1.9-85,25.6-122.7,48.7l-0.9,0.5
	l-0.7,0.4c-17.8,9.2-35.5,18.3-55.1,23c-1.7-4.5-3.8-8.9-6.4-13.3c21.2-6.1,39.8-18.5,58.5-30.8c13.8-9.1,27.6-18.2,42.3-24.8
	c11.6-6,24.4-10.8,37.9-13.2c11.7-2.1,23.8-2.5,36-0.4C357.8,327.4,361.5,330.7,365,334.2L365,334.2z M342.5,315.8
	c3.6,2.4,7.1,4.9,10.4,7.6c-11.9-1.9-23.7-1.5-35.1,0.6c-13.6,2.5-26.5,7.3-38.1,13.3c-14.8,6.6-28.6,15.7-42.4,24.8
	c-18.7,12.3-37.4,24.7-58.5,30.8c-0.5-0.9-1.1-1.8-1.6-2.7c-5.6-8.8-12.3-16.1-19.8-22c9.9-3.4,19.2-8.5,28.3-13.6
	c4.9-3.2,9.8-6.5,14.7-9.8c35.5-23.8,72.1-48.2,118.3-44c1.7,1.2,3.3,2.4,5.1,3.5c3,2,6.3,4,9.5,5.9
	C336.4,312,339.5,313.8,342.5,315.8L342.5,315.8z M156.9,367.7c-4-3.1-8.3-5.8-12.7-8.1c-1.3-0.7-2.5-1.3-3.8-1.9
	c8.8-5.9,18.6-10.2,27.4-16c8.9-5,17.4-11,25.9-16.9c15.6-11,31.3-22,49.4-26.7c9.6-3.2,20.2-5.7,31-7.3c9.9-1.5,20-2.2,29.7-2
	c2.3,2,4.5,3.9,6.8,5.8c2.4,1.9,4.7,3.7,7.2,5.5c-45.9-3.8-82.3,20.5-117.6,44.2c-4.9,3.3-9.8,6.6-14.7,9.7
	C176.3,359.2,166.9,364.3,156.9,367.7L156.9,367.7z M338,286.1c0,7.2-0.6,14.2-1.7,21.1l-0.8-0.5c-19.1-11.4-36.4-25.8-50.4-43.2
	c6.5-5.8,12.8-12.1,18.4-19.5c5.7-7.4,10.9-15.7,15.3-25.4C331,238.3,338,261.4,338,286.1z M314.9,212.7
	c-4.6,10.7-10,19.8-16.2,27.7c-6.1,7.9-12.8,14.6-20,20.7c-17.3,0.3-34,4.1-49.9,10.7c-15.6-14.8-31.2-31.8-38.7-52.2
	c-2-5.3-2.7-10.3-1.8-15.4c0.8-5.2,3.3-10.6,7.5-16.6c4.1-5.8,8.6-11.2,13.7-16.2c4.7-4.6,9.9-8.7,16-12.4c8.5,1,16.7,2.9,24.6,5.5
	c-6.1,3-11.6,6.8-16.7,11.2c-7.8,6.7-14.3,14.6-20.6,22.8c10.8,6.6,21.3,13.6,31.4,21.3s19.8,15.8,29.4,24.1
	c7.1-7.5,13.7-15.2,18.4-24.5c3.6-7.1,6.1-15.2,7.4-24.8C305,200,310.3,206.1,314.9,212.7L314.9,212.7z M57.6,181
	c-3.9,13.8-2,28.8-0.1,43.2c0.4,3.5,0.9,7,1.2,10.4c0.2,8.1-0.5,16.1-1.2,24.2c-1.2,13.5-2.3,26.9,0.7,40.2
	c1.4,6.3,3.1,13.1,5.4,19.6c2.1,6.1,4.7,12.1,7.9,17.4c-1.5-0.4-3-0.9-4.5-1.4c-5.9-2-11.6-4.6-17-7.7c-17.7-17.7-13-47.7-9.2-71.8
	c0.5-3.5,1.1-6.9,1.5-10.1c0.9-10.6,1-22,0-33c-0.9-9.7-2.6-19.3-5.5-27.9c-0.8-5.6-1.1-11.6-1-17.6c0.1-6.2,0.7-13.3,1.5-19.2
	C43.4,158.8,50.2,170.1,57.6,181L57.6,181z M19.8,91.5l94.1,100.9c-8.1,8.3-15.1,17.6-20.8,27.7c-20-23.6-38.6-48.8-53-76.2
	C31.1,126.7,24.5,109.8,19.8,91.5z M64.2,318.4c-2.2-6.5-4-13.2-5.4-19.5c-3-13.2-1.9-26.6-0.7-40c0.7-8,1.4-16.1,1.2-24.3
	c-0.4-3.4-0.8-6.9-1.2-10.4c-1.8-14.2-3.7-29-0.1-42.5c10,14.9,21,29.3,32.6,42.9c-9.5,18.4-14.9,39.3-14.9,61.5
	c0,18.7,3.8,36.4,10.7,52.6c-4.8-0.4-9.5-1.2-14.1-2.5C69,330.8,66.4,324.7,64.2,318.4L64.2,318.4z M81.8,286.1
	c0-9.4,1-18.6,2.9-27.4c10.4-10.9,22.1-19.6,36.2-25.7c-3.4,10.2-1,22.4,3.6,33.9c8.3,20.6,21.2,34.5,36.8,48.5
	c-7.4,5.2-15.2,9.9-24,13.8c-9.1,4-18.8,7-29.1,8.6c-5.1,0.8-10.1,1.2-15,1.2C85.9,322.9,81.8,305,81.8,286.1L81.8,286.1z
	 M129.2,263.5c-5.9-15.9-6-31.5,7.9-42.2c12.4-9.5,31.1-14,44.9-16.4c-0.8,5.9,0.2,10.9,2.4,16.8c7.6,20.5,22.7,37.7,38.5,52.6
	c-0.9,0.4-1.7,0.8-2.6,1.2c-14.9,7.3-28.9,16.4-41.8,26.7c-4.1,3.3-8.1,6.4-12.1,9.4C150.8,297.9,136.7,283.8,129.2,263.5
	L129.2,263.5z M155.7,139.9l-10.2-1.3c0.1,0,0.2-0.1,0.3-0.1c9.7-4.4,20.1-7.7,30.8-10c21.7-4.5,45.2-4.5,66.9,0
	c10.7,2.2,21,5.6,30.8,10c0.1,0,0.2,0.1,0.3,0.1l-10.2,1.3l-0.8,0.1l0.5,0.6l7.1,8.7c-9.4-4.2-19.1-7.4-29-9.5c-21-4.6-43-4.6-64,0
	c-10.1,2.2-19.8,5.4-29,9.5l7.1-8.7l0.5-0.6L155.7,139.9z M150.1,155.5c9.2-4.2,19-7.5,29.2-9.7c20.2-4.4,41.2-4.4,61.4,0
	c10,2.2,19.8,5.4,29.2,9.7c1.6,0.8,1.5,4,1,5.3c-0.6,1.7-2.3,2.9-3.9,3.8c-17.3-8.1-36.6-12.7-56.9-12.7c-20.4,0-39.7,4.5-56.9,12.7
	c-1.6-0.9-3.3-2.1-3.9-3.8C148.6,159.5,148.4,156.2,150.1,155.5L150.1,155.5z M279.7,186.8c-1.5-1-2.9-2-4.2-3.2l3.7-5.2
	c5.1,3.3,10,6.9,14.5,10.9c-1,10.9-3.6,19.6-7.3,27.2c-3.4,6.9-7.9,12.9-13.3,18.8c-7.2-6.2-14.4-12.1-21.7-17.8l4.3-6
	c2.7,2,5.1,4.2,7.4,6.8c1.3,1.2,3.8,1.5,4.9,0.2c1.2-1.3,1.1-4.1-0.2-5.3c-3.1-2.2-5.9-4.4-8.5-6.9l5.8-8.2c1.6,1.2,3.2,2.6,4.7,4.4
	c1.2,1.1,3.1,1,4.2-0.3c1.1-1.2,1-3.1-0.3-4.2c-2-1.3-3.8-2.8-5.5-4.3l4.4-6.1c1.2,0.9,2.2,2,3.1,3.3c1.2,1.1,3.1,1.1,4.2-0.1
	C281,189.8,280.9,187.9,279.7,186.8L279.7,186.8z M274,175.2l-3.3,4.6c-1.3-0.9-2.6-1.8-3.7-3.1c-1.3-0.9-3.2-0.6-4.1,0.8
	c-0.9,1.3-0.6,3.2,0.8,4.1c1.4,0.5,2.8,1.3,4,2.4l-4.4,6.2c-2.3-1.4-4.4-3.1-6.4-5c-1.3-0.9-3.2-0.6-4.1,0.8
	c-0.9,1.3-0.6,3.2,0.8,4.1c2.3,1.3,4.6,2.8,6.6,4.5l-5.7,8c-2.9-1.9-5.8-3.9-8.6-6.9c-1.4-1.1-3.8-0.8-4.9,0.6
	c-1.1,1.4-0.7,3.8,0.7,4.9c3.1,2,6,4,9,6.7l-4.3,6c-8-6-16.3-11.7-24.8-17c4.8-6,10-11.7,15.6-16.6c6.2-5.3,13.1-9.7,21-12.7
	C263.8,169.7,269,172.3,274,175.2L274,175.2z M283,148.5l-10.3,2.3l-8.5-10.5l13-1.6L283,148.5z M303.3,110.3c-3.3,0-6-2.7-6-6
	s2.7-6,6-6s6,2.7,6,6C309.2,107.6,306.5,110.3,303.3,110.3z M308,90.4c0,3.3-2.7,6-6,6s-6-2.7-6-6s2.7-6,6-6S308,87.1,308,90.4z
	 M304.7,77.4c0,3.3-2.7,6-6,6s-6-2.7-6-6s2.7-6,6-6S304.7,74.1,304.7,77.4z M291.9,58.6c3.3,0,6,2.7,6,6s-2.7,6-6,6s-6-2.7-6-6
	S288.6,58.6,291.9,58.6z M279,49.4c3.3,0,6,2.7,6,6s-2.7,6-6,6s-6-2.7-6-6S275.7,49.4,279,49.4z M261.7,39c3.3,0,6,2.7,6,6
	s-2.7,6-6,6s-6-2.7-6-6S258.4,39,261.7,39z M253.7,51.4c1.9,2.4,4.8,3.9,8.1,3.9c3,0,5.7-1.3,7.6-3.3c-0.4,1.1-0.6,2.2-0.6,3.4
	c0,5.7,4.6,10.3,10.3,10.3c0.9,0,1.8-0.1,2.6-0.3c0.3,4.3,3.3,7.8,7.2,9c-0.3,1-0.4,2-0.4,3c0,3.5,1.7,6.6,4.4,8.4
	c-0.7,1.4-1,2.9-1,4.5c0,3,1.3,5.8,3.4,7.6c-1.4,1.7-2.2,3.9-2.2,6.3c0,1.7,0.4,3.2,1.1,4.6c-1-0.6-2.2-1-3.3-1
	c-1.5,0-3.1,0.5-4.3,1.6L286,110c-0.1,0.1-0.1,0.2-0.2,0.3c-0.3,0.3-0.4,0.7-0.6,1c-2.6-0.4-5-1.2-7.3-2.4c-2.4-1.2-4.5-2.9-6.4-4.8
	c1.4-1.1,2.4-2.7,2.9-4.5c0.5-1.9,0.3-3.9-0.4-5.6c-0.7-1.7-1.9-3.1-3.5-4.1c-0.1-2.2-1.1-4-2.4-5.4c-1.1-1.1-2.5-1.9-4-2.3
	c-0.1,0-0.1,0-0.2-0.1c0.9-1.4,1.4-3.1,1.4-4.9c0-4-2.6-7.4-6.2-8.7c0.8-1.4,1.2-3.1,1.2-4.9c0-4.6-3-8.4-7.1-9.8
	C253.3,53.3,253.5,52.4,253.7,51.4z M260.6,77.4c0,2.7-2.2,4.9-4.9,4.9s-4.9-2.2-4.9-4.9s2.2-4.9,4.9-4.9S260.6,74.7,260.6,77.4z
	 M255.7,63.9c0,3.3-2.7,6-6,6s-6-2.7-6-6s2.7-6,6-6S255.7,60.6,255.7,63.9z M243.5,43.9c3.3,0,6,2.7,6,6s-2.7,6-6,6s-6-2.7-6-6
	S240.2,43.9,243.5,43.9z M227.7,34.5c3.3,0,6,2.7,6,6s-2.7,6-6,6s-6-2.7-6-6C221.8,37.2,224.5,34.5,227.7,34.5z M219.7,46.9
	c1.9,2.4,4.8,3.9,8.1,3.9c2,0,3.9-0.6,5.5-1.6v0.7c0,4.6,3,8.4,7.1,9.8c-0.6,1.3-0.9,2.7-0.9,4.2c0,4.8,3.4,8.9,7.9,10
	c-0.5,1.1-0.7,2.3-0.7,3.6c0,4,2.6,7.4,6.1,8.7c-1.2,0.3-2.4,0.8-3.4,1.6c-1.5,1.1-2.6,2.7-3.1,4.7c-0.6,2.1-0.3,4.2,0.6,6
	c-5,1.9-10.4,2.6-15.6,2c-3.8-0.5-7.5-1.8-10.8-3.9c2.2-1.6,3.6-4.2,3.6-7.1c0-2.1-0.8-4.1-2.1-5.6c2.6-1.4,4.3-4.2,4.3-7.3
	c0-3.4-2-6.3-4.9-7.6c2.9-1.3,4.9-4.2,4.9-7.6c0-4.5-3.6-8.2-8.1-8.3c-0.2-1.3-0.6-2.5-1.3-3.5C217.9,48.7,218.9,47.8,219.7,46.9z
	 M217.9,72.5c2.2,0,3.9,1.8,3.9,3.9c0,2.2-1.8,3.9-3.9,3.9h-0.2c-0.8-1.6-2.1-2.9-3.7-3.8v-0.1C214,74.3,215.8,72.5,217.9,72.5z
	 M215.1,60.5c1.1-0.8,1.9-1.9,2.5-3.2h0.4c2.2,0,3.9,1.8,3.9,3.9c0,2.1-1.7,3.9-3.8,3.9C217.6,63.3,216.5,61.6,215.1,60.5
	L215.1,60.5z M209.9,32.8c3.3,0,6,2.7,6,6s-2.7,6-6,6s-6-2.7-6-6C204,35.4,206.6,32.8,209.9,32.8z M209.9,56.8
	c-1.6,0-2.8-1.3-2.8-2.8c0-1.6,1.3-2.8,2.8-2.8c1.6,0,2.8,1.3,2.8,2.8C212.8,55.5,211.5,56.8,209.9,56.8z M212.8,67.1
	c0,1.6-1.3,2.8-2.8,2.8c-1.6,0-2.8-1.3-2.8-2.8c0-1.6,1.3-2.8,2.8-2.8C211.5,64.2,212.8,65.5,212.8,67.1z M201.9,72.5
	c2.2,0,3.9,1.8,3.9,3.9v0.1c-1.6,0.8-2.9,2.2-3.7,3.8h-0.2c-2.2,0-3.9-1.8-3.9-3.9S199.8,72.5,201.9,72.5z M198,61.2
	c0-2.2,1.8-3.9,3.9-3.9h0.4c0.6,1.3,1.4,2.3,2.5,3.2c-1.5,1.1-2.5,2.8-3,4.6C199.7,65.1,198,63.3,198,61.2L198,61.2z M192.1,34.5
	c3.3,0,6,2.7,6,6s-2.7,6-6,6s-6-2.7-6-6S188.8,34.5,192.1,34.5z M186.7,49.9v-0.7c1.6,1,3.5,1.6,5.5,1.6c3.3,0,6.2-1.5,8.1-3.9
	c0.8,1,1.7,1.8,2.8,2.5c-0.7,1-1.1,2.2-1.3,3.5c-4.5,0.1-8.1,3.8-8.1,8.3c0,3.4,2,6.3,4.9,7.6c-2.9,1.3-4.9,4.2-4.9,7.6
	c0,3.1,1.7,5.9,4.3,7.3c-1.3,1.5-2.1,3.5-2.1,5.6c0,2.9,1.4,5.5,3.6,7.1c-3.3,2.2-7,3.4-10.8,3.9c-5.2,0.7-10.6-0.1-15.6-2
	c0.9-1.8,1.2-3.9,0.6-6c-0.5-1.9-1.6-3.5-3.1-4.7c-1-0.8-2.1-1.3-3.4-1.6c3.6-1.3,6.1-4.7,6.1-8.7c0-1.3-0.3-2.5-0.7-3.6
	c4.5-1.1,7.9-5.2,7.9-10c0-1.5-0.3-2.9-0.9-4.2C183.7,58.3,186.7,54.5,186.7,49.9L186.7,49.9z M164.1,82.3c-2.7,0-4.9-2.2-4.9-4.9
	s2.2-4.9,4.9-4.9s4.9,2.2,4.9,4.9S166.8,82.3,164.1,82.3z M176.4,43.9c3.3,0,6,2.7,6,6s-2.7,6-6,6s-6-2.7-6-6S173.1,43.9,176.4,43.9
	z M170.2,57.9c3.3,0,6,2.7,6,6c0,3.3-2.7,6-6,6s-6-2.7-6-6S166.9,57.9,170.2,57.9z M158.1,39c3.3,0,6,2.7,6,6s-2.7,6-6,6s-6-2.7-6-6
	C152.2,41.7,154.9,39,158.1,39z M151.2,55.4c0-1.2-0.2-2.3-0.6-3.4c1.9,2,4.6,3.3,7.6,3.3c3.3,0,6.2-1.5,8.1-3.9
	c0.1,0.9,0.4,1.8,0.8,2.7c-4.1,1.4-7.1,5.2-7.1,9.8c0,1.8,0.4,3.4,1.2,4.9c-3.6,1.3-6.2,4.7-6.2,8.7c0,1.8,0.5,3.5,1.4,4.9
	c-0.1,0-0.1,0-0.2,0.1c-1.5,0.4-2.9,1.2-4,2.3c-1.4,1.4-2.3,3.2-2.4,5.4c-1.6,1-2.8,2.4-3.5,4.1s-0.9,3.7-0.4,5.6
	c0.5,1.8,1.5,3.4,2.9,4.5c-1.9,2-4.1,3.6-6.4,4.8c-2.3,1.2-4.7,2-7.3,2.4c-0.2-0.3-0.4-0.6-0.6-1c-0.1-0.1-0.1-0.2-0.2-0.3l-0.6-0.6
	c-1.2-1.1-2.8-1.6-4.3-1.6c-1.2,0-2.3,0.4-3.3,1c0.7-1.4,1.1-3,1.1-4.6c0-2.4-0.8-4.6-2.2-6.3c2.1-1.9,3.4-4.6,3.4-7.6
	c0-1.6-0.4-3.2-1-4.5c2.7-1.9,4.4-4.9,4.4-8.4c0-1-0.2-2.1-0.4-3c4-1.2,6.9-4.8,7.2-9c0.8,0.2,1.7,0.3,2.6,0.3
	C146.5,65.7,151.2,61.1,151.2,55.4z M140.9,49.4c3.3,0,6,2.7,6,6s-2.7,6-6,6s-6-2.7-6-6S137.6,49.4,140.9,49.4z M128,58.6
	c3.3,0,6,2.7,6,6s-2.7,6-6,6s-6-2.7-6-6S124.7,58.6,128,58.6z M121.2,71.4c3.3,0,6,2.7,6,6s-2.7,6-6,6s-6-2.7-6-6
	S117.9,71.4,121.2,71.4z M117.8,84.4c3.3,0,6,2.7,6,6s-2.7,6-6,6s-6-2.7-6-6C111.9,87.1,114.5,84.4,117.8,84.4z M110.6,104.3
	c0-3.3,2.7-6,6-6s6,2.7,6,6s-2.7,6-6,6S110.6,107.6,110.6,104.3z M119.4,119c-3.2-0.8-2-5.7,1.2-4.9c3.3,0.8,4.8,0.4,6.6-1.6
	c1-1.1,3.1-1.2,4,0c1.5,1.9-0.6,3.1,3.1,2.8c7.3-0.2,13.3-3.8,17.8-9.4c0.9-1,1.8-2.1,2.6-3.3c-2.4,0.3-4.8-1.3-5.4-3.7
	c-0.6-2.3,0.5-4.6,2.4-5.7c1.3-0.7,1.6-0.8,1.6-2.4c0-5.1,6.9-7,9.4-2.5c0.8,1.4,1.1,1.3,2.6,1.3c2.2,0,4.3,1.5,4.9,3.8
	c0.7,2.6-0.8,5.3-3.4,6.1c12.7,6.7,30.1,6.4,40.1-4.8c-3.2,1-7.8-1.6-7.8-5.1c0-2.3,1.6-4.3,3.8-4.9c1.5-0.4,1.8-0.4,2.2-1.9
	c1.3-5,8.5-5,9.8,0c0.4,1.5,0.7,1.5,2.2,1.9c2.2,0.6,3.8,2.5,3.8,4.9c0,3.5-4.6,6.1-7.8,5.1c10,11.2,27.4,11.5,40.1,4.8
	c-2.6-0.8-4.1-3.5-3.4-6.1c0.6-2.3,2.7-3.8,4.9-3.8c1.5,0,1.8,0.1,2.6-1.3c2.5-4.5,9.5-2.6,9.5,2.5c0,1.5,0.3,1.6,1.6,2.4
	c2,1.1,3,3.4,2.4,5.7c-0.6,2.4-3,4-5.4,3.7c0.8,1.2,1.7,2.3,2.6,3.3c4.5,5.6,10.5,9.2,17.8,9.4c3.7,0.4,1.5-0.9,3.1-2.8
	c1-1.2,3-1,4,0c1.8,2,3.3,2.4,6.6,1.6c3.2-0.8,4.4,4.1,1.2,4.9c-13.4,3.3-27.3,2-36.4-9.8c-2-2.2-3.8-4.7-5.2-7.5
	c-14.4,8.9-35.9,9.4-48.9-2.8c-13,12.3-34.6,11.8-48.9,2.8c-1.4,2.8-3.2,5.3-5.2,7.5C146.7,120.9,132.8,122.3,119.4,119L119.4,119z
	 M140.9,123.3c10.4-4.6,21.4-8,32.8-10.4c23.6-4.8,48.9-4.8,72.5,0c11.4,2.3,22.4,5.8,32.8,10.4c6.1,2.7,2.5,11.8-2.3,9.6
	c-10.1-4.6-20.9-8-32-10.4c-22.5-4.7-46.9-4.7-69.4,0c-11.2,2.3-21.9,5.8-32,10.4C138.5,135.1,134.8,126,140.9,123.3L140.9,123.3z
	 M136.9,148.5l5.8-9.8l13,1.6l-8.5,10.5L136.9,148.5z M209.9,158c2,0,3.9,0.1,5.8,0.1c-3.8,2.8-7.3,5.7-10.5,8.9
	c-5.4,5.2-10.1,10.9-14.4,17c-3.4,4.8-6.1,10.2-7.5,14.6c-19.6,3.3-43.4,9.1-56.7,24.9c-14.5,5.1-27.5,13.5-38.8,23.7
	C104.3,195.5,152.8,158,209.9,158z M8.2,79.7c-3.6-3.6-3.1-8.6,0.3-12.2l6.8-7.3c3.4-3.7,8.6-4.6,12.2-1.1c3.6,3.6,2.4,8.3-1.1,12
	L25,72.6l101.2,108.7c-2.7,2.2-5.4,4.5-8,6.9L17.5,80.1C14.6,82.1,11,82.5,8.2,79.7z M8.4,275.1c-1.7-10.2,0-20.3,2.5-32.1
	c1.3-6.4,2.7-12.8,3.4-19.9c0.8-7.7,0.2-15.4-2.1-22.8c-9.6-32.5-2.7-68.5,4.5-100.9c4.1,15.9,12.1,31.9,19.7,46.4l0.3,0.5l-0.1,0.6
	c-0.9,6.2-1.4,12.9-1.5,19.5c-0.1,6.1,0.2,12.1,1,17.7v0.1c2.9,8.6,4.6,18.1,5.5,27.8c1,11,0.9,22.3,0,32.9c-0.4,3.2-1,6.6-1.5,10
	c-3.7,23.6-8.2,52.6,7.8,70.7c-6.5-4-12.5-8.8-18.2-14.3C19.7,301.7,10.8,289.1,8.4,275.1L8.4,275.1z M59.4,360.5
	c-6.3-6-12.9-11.4-20.2-16.2c-8.2-5.3-12.4-9-15.7-18.4c-2.6-7.5-6.1-14.6-8.8-22.1c-1-2.8-2-5.7-2.9-8.4
	c4.1,6.9,9.3,13.3,15.1,18.9c11.2,11.3,24.2,19.6,38.7,24.2c13.4,4.5,27.9,5.8,43.2,3.4c10.7-1.7,20.6-4.8,30.1-8.9
	c16-7,28.6-16.7,42-27.4c12.7-10.2,26.4-19.1,41-26.2c18.4-9,38.5-14.4,59-14.2c2.5,3.1,5.1,6.2,7.8,9.1c2.9,3.1,5.9,6.2,9,9.1
	c1.8,1.7,3.6,3.3,5.3,4.9c-9.6-0.2-19.4,0.5-29.1,2c-10.9,1.6-21.5,4.2-31.1,7.3c-18.2,4.8-33.9,15.8-49.6,26.8
	c-8.5,6-17,11.9-25.9,16.9c-9,5.9-18.9,10.2-27.8,16.2c-12.5-5.6-26.2-8.1-40.1-7.7c-6.8,0.2-13.7,1.3-20.5,3.2
	C72.4,354.8,65.8,357.3,59.4,360.5L59.4,360.5z M172.8,469.4c-15.1-16.9-31.5-32.8-51.3-44.5c-14.6-3.2-27.4-18.1-34.7-29.6
	c-2.7-5.4-6.3-10.9-10.7-16.5c-3.9-5-8.4-10.2-13.7-15.4c5.8-2.8,11.6-4.9,17.6-6.6c6.5-1.8,13.1-2.9,19.6-3.1
	c14.8-0.5,29.5,2.6,42.6,9.4c12.3,6.4,23.2,16.1,31.6,29.2c7.9,12.4,12.2,25.6,13,39.1c0.9,13.5-1.7,27.2-7.4,40.6
	C177.2,471.3,175,470.4,172.8,469.4z M322.8,425c-12.7,8.7-25.6,17.4-39.1,25.2c-21.5,12.4-42.5,20.9-62.1,24.2
	c-13.6,2.3-26.4,2.1-38.2-1.2c2.4-5.8,4.3-11.6,5.6-17.5c16.9,0,32.6-4,47.5-10.1c15-6.1,29.1-14.2,43-22.6
	c3.4-2.4,6.8-4.7,10.1-7.1c33-23.2,66.1-46.5,108.1-47.4c3.6,3.7,7.3,7.4,11,10.9C376,388.8,349.7,406.8,322.8,425L322.8,425z
	 M398.2,460.8l-9.1,6l-48.2-48.9l9.1-6.1L398.2,460.8z"/>
<path class="st1" d="M48,325.7c-16-18.1-11.5-47.1-7.8-70.7c0.5-3.5,1.1-6.8,1.5-10c0.9-10.6,1-21.9,0-32.9
	c-0.9-9.7-2.6-19.2-5.5-27.8v-0.1c-0.8-5.7-1.1-11.7-1-17.7c0.1-6.7,0.6-13.3,1.5-19.5l0.1-0.6l-0.3-0.5
	c-7.6-14.4-15.5-30.5-19.7-46.4c-7.2,32.4-14.1,68.4-4.5,100.9c2.3,7.4,2.9,15.1,2.1,22.8c-0.7,7.1-2.1,13.6-3.4,19.9
	c-2.5,11.8-4.2,21.9-2.5,32.1c2.3,14,11.3,26.7,21.3,36.3C35.4,316.9,41.5,321.7,48,325.7L48,325.7z"/>
<path class="st2" d="M148.9,149.3c9.2-4.1,19-7.3,29-9.5c21-4.6,43-4.6,64,0c9.9,2.2,19.7,5.3,29,9.5l-7.1-8.7l-0.5-0.6l0.8-0.1
	l10.2-1.3c-0.1,0-0.2-0.1-0.3-0.1c-9.7-4.4-20.1-7.7-30.8-10c-21.7-4.5-45.2-4.5-66.9,0c-10.7,2.2-21,5.6-30.8,10
	c-0.1,0-0.2,0.1-0.3,0.1l10.2,1.3l0.8,0.1l-0.5,0.6L148.9,149.3z M230.2,130.6c1.1-2,3.8-2.2,5.8-1.7l13.1,2.9
	c1.4,0.3,2.7,0.8,3.6,1.9c1.6,1.8,1,4.2-1.2,5.2c-1.4,0.6-2.8,0.5-4.1,0.2l-13-2.9c-1.1-0.2-2.1-0.6-3-1.2
	C230.2,134,229.3,132.2,230.2,130.6L230.2,130.6z M209.9,126.4l11.1,4.4l-11.1,4.4l-11.1-4.4C198.8,130.8,209.9,126.4,209.9,126.4z
	 M167.2,133.6c0.9-1.1,2.2-1.6,3.6-1.9l13.1-2.9c2-0.4,4.6-0.3,5.8,1.7c0.9,1.6,0,3.4-1.3,4.4c-0.9,0.7-1.9,1-3,1.2l-13,2.9
	c-1.3,0.3-2.7,0.4-4.1-0.2C166.1,137.8,165.6,135.5,167.2,133.6z"/>
<path class="st3" d="M36.8,184c2.9,8.7,4.7,18.2,5.5,27.9c1,11.1,0.9,22.4,0,33c-0.4,3.2-1,6.6-1.5,10.1
	c-3.8,24.2-8.5,54.1,9.2,71.8c5.4,3.2,11.1,5.8,17,7.7c1.5,0.5,3,1,4.5,1.4c-3.2-5.3-5.8-11.3-7.9-17.4c-2.2-6.5-4-13.2-5.4-19.6
	c-3-13.3-1.9-26.7-0.7-40.2c0.7-8,1.4-16.1,1.2-24.2c-0.4-3.4-0.8-6.9-1.2-10.4c-1.9-14.3-3.8-29.3,0.1-43.1
	c-7.3-11-14.1-22.2-20.3-33.8c-0.8,5.9-1.4,13-1.5,19.2C35.7,172.4,36,178.4,36.8,184z"/>
<path class="st1" d="M86.4,338.7c-6.9-16.1-10.7-33.9-10.7-52.6c0-22.2,5.4-43.1,14.9-61.5C79,211,68,196.6,58,181.7
	c-3.6,13.5-1.8,28.2,0.1,42.5c0.4,3.5,0.9,7,1.2,10.4c0.2,8.1-0.5,16.2-1.2,24.3c-1.2,13.5-2.3,26.8,0.7,40c1.4,6.3,3.1,13,5.4,19.5
	c2.2,6.3,4.8,12.4,8.2,17.8C76.9,337.5,81.6,338.3,86.4,338.7L86.4,338.7z M397.7,368.6c-42,0.9-75.2,24.2-108.1,47.4
	c-3.4,2.4-6.7,4.7-10.1,7.1c-13.9,8.3-28,16.5-43,22.6c-14.9,6.1-30.6,10-47.5,10.1c-1.3,5.9-3.2,11.7-5.6,17.5
	c11.8,3.2,24.6,3.5,38.2,1.2c19.5-3.3,40.6-11.9,62.1-24.2c13.6-7.8,26.4-16.5,39.1-25.2c26.9-18.3,53.2-36.2,86-45.5
	C405,376,401.4,372.3,397.7,368.6L397.7,368.6z"/>
<path class="st3" d="M318.5,375.6c-20,12.7-40.4,25.4-61.5,36.2c-21,10.7-42.7,19.4-65.8,24.4c0,6.3-0.6,12.7-2,19
	c16.7-0.1,32.3-4,47.1-10c14.9-6.1,29.1-14.2,42.9-22.5c3.3-2.3,6.7-4.7,10.1-7.1c32.9-23.1,66-46.4,107.9-47.5
	c-1.1-1.1-2.2-2.3-3.4-3.4c-3.6-3.6-7.1-7.3-10.5-10.9c-11.9,0.9-22.9,3.6-33.5,7.4C339,364.9,328.7,370,318.5,375.6z"/>
<path class="st1" d="M241.8,383.9l-0.7,0.4c-17.8,9.2-35.5,18.3-55.2,23.1c2.9,7.8,4.6,15.8,5.1,23.9c0.1,1.4,0.1,2.8,0.2,4.3
	c23-4.9,44.7-13.7,65.6-24.3c21.2-10.8,41.5-23.5,61.5-36.1c10.3-5.6,20.6-10.7,31.4-14.6c10.5-3.8,21.4-6.4,33.1-7.4l-0.3-0.3
	c-3.6-3.9-7.3-7.9-11-12l-5.7-6c-46.3,1.7-85.2,25.5-123,48.6L241.8,383.9z"/>
<path class="st3" d="M318,324.7c-13.5,2.5-26.4,7.3-37.9,13.2c-14.7,6.6-28.5,15.6-42.3,24.8c-18.7,12.3-37.3,24.7-58.5,30.8
	c2.5,4.4,4.7,8.8,6.4,13.3c19.6-4.8,37.3-13.9,55.1-23l0.7-0.4l0.9-0.5c37.7-23.1,76.5-46.8,122.7-48.7c-3.5-3.5-7.2-6.8-11-10
	C341.8,322.1,329.7,322.5,318,324.7L318,324.7z"/>
<path class="st1" d="M323.9,304.3c-1.7-1.2-3.4-2.3-5.1-3.5c-46.2-4.2-82.7,20.2-118.3,44c-4.9,3.3-9.8,6.6-14.7,9.8
	c-9.1,5.1-18.4,10.2-28.3,13.6c7.5,5.9,14.2,13.2,19.8,22c0.6,0.9,1.1,1.8,1.6,2.7c21.1-6.1,39.8-18.4,58.5-30.8
	c13.8-9.1,27.6-18.2,42.4-24.8c11.6-6,24.5-10.8,38.1-13.3c11.4-2.1,23.2-2.5,35.1-0.6c-3.4-2.7-6.8-5.2-10.4-7.6
	c-3.1-2-6.1-3.8-9.1-5.6C330.1,308.3,326.9,306.4,323.9,304.3L323.9,304.3z"/>
<path class="st3" d="M317.8,300.1c-2.4-1.8-4.8-3.6-7.2-5.5c-2.3-1.8-4.5-3.7-6.8-5.8c-9.8-0.2-19.9,0.5-29.7,2
	c-10.8,1.6-21.4,4.1-31,7.3c-18.1,4.7-33.7,15.7-49.4,26.7c-8.5,6-17,11.9-25.9,16.9c-8.8,5.8-18.7,10.1-27.4,16
	c1.3,0.6,2.6,1.2,3.8,1.9c4.4,2.3,8.7,5,12.7,8.1c10-3.4,19.4-8.5,28.6-13.7c4.9-3.2,9.8-6.5,14.7-9.7
	C235.5,320.6,271.9,296.3,317.8,300.1L317.8,300.1z"/>
<path class="st1" d="M99.6,349.8c13.9-0.5,27.6,2.1,40.1,7.7c8.9-6.1,18.8-10.3,27.8-16.2c8.9-5,17.4-10.9,25.9-16.9
	c15.7-11,31.3-22,49.6-26.8c9.6-3.2,20.2-5.7,31.1-7.3c9.7-1.4,19.5-2.2,29.1-2c-1.8-1.6-3.5-3.2-5.3-4.9c-3.1-2.9-6.1-6-9-9.1
	c-2.7-2.9-5.3-6-7.8-9.1c-20.5-0.2-40.7,5.2-59,14.2c-14.6,7.1-28.3,16.1-41,26.2c-13.4,10.8-26,20.4-42,27.4
	c-9.4,4.1-19.4,7.2-30.1,8.9c-15.3,2.5-29.8,1.2-43.2-3.4c-14.5-4.6-27.6-12.9-38.7-24.2c-5.8-5.6-11-12-15.1-18.9
	c0.9,2.7,1.8,5.6,2.9,8.4c2.7,7.5,6.2,14.6,8.8,22.1c3.3,9.4,7.4,13.1,15.7,18.4c7.3,4.7,13.9,10.1,20.2,16.2
	c6.4-3.2,12.9-5.6,19.6-7.5S92.7,350,99.6,349.8L99.6,349.8z"/>
<path class="st3" d="M186.9,431.5c-0.8-13.5-5.1-26.7-13-39.1c-8.3-13.1-19.3-22.8-31.6-29.2c-13.1-6.8-27.8-9.9-42.6-9.4
	c-6.5,0.2-13.1,1.3-19.6,3.1c-6,1.6-11.8,3.8-17.6,6.6c5.3,5.2,9.8,10.4,13.7,15.4c4.4,5.6,8,11.1,10.7,16.5
	c7.2,11.5,20.1,26.4,34.7,29.6c19.8,11.8,36.2,27.6,51.3,44.5c2.2,1,4.4,1.9,6.6,2.6C185.2,458.7,187.8,445,186.9,431.5z M154,437.4
	c-1.6,0.1-3.8-0.3-6.5-1.1c-0.4-0.1-0.7-0.2-1.1-0.3c-0.5-0.2-1.1-0.3-1.3-0.3c-0.8,0.1-0.2,0.8,1.2,2.3c-0.3,0-0.6,0.1-1,0.1
	c-2.8-2.5-5.6-5.2-8.6-8s-6.2-5.8-9.5-8.8c0.3-0.1,0.6-0.1,0.9-0.2c6.4,5.4,11.4,8.9,15.2,11.1c3.7,2.1,6.5,3,8.4,2.8
	c3.8-0.4,1.4-4.7-2.5-8.6c-2.3-2.4-4.6-4.3-7-5.5c-1.6-0.8-4.2-2.1-7.3-3.1c-1.8-0.7-3.6-1.3-5.4-2c-2.6-1-4.9-2-7.1-3.1
	c-2.2-1-4.2-2.2-6.1-3.4c-3.6-2.2-7.7-5.5-12.2-9.7c-5.2-4.8-10.2-10.3-13.7-15.3c-3.7-5.4-5.7-10.2-3.8-12.7c1-1.3,3.2-1.6,5.2-1.6
	c2.1,0,4,0.2,4.1,0c0.7-0.8-0.8-2.8-3.6-6.2c0.3-0.4,0.7-0.9,1-1.3c5.1,5.4,10,10.6,14.7,15.6c4.5,4.7,8.8,9.3,12.9,13.6
	c-0.4,0.2-0.7,0.5-1.1,0.7c-6.2-5.5-12.6-10.5-17.9-13.7c-5.4-3.3-9.4-4.6-10.8-3c-1.8,2.1,2.2,8.3,8.1,14c3.7,3.5,6.5,5.8,8.7,7
	s6.1,2.8,11.3,4.6c2.3,0.8,4.6,1.6,6.9,2.5c2.8,0.9,5.7,2.2,8.5,4c5.4,3.2,10.3,7.2,14.9,12.1c4,4.3,7.1,8.7,8.1,12.1
	C158.6,435,157.7,437.1,154,437.4L154,437.4z M178.9,431.3c-0.8,2.1-2.2,3-6.1,2.9c-1.1,0.2-1.7,0.5-1.9,0.9
	c-0.4,0.9,0.5,3.4,3.5,7.4c-0.1,0.3-0.3,0.7-0.4,1c-4.9-5.1-9.7-10.1-14.4-15c-4.5-4.7-9-9.4-13.3-13.9c0.2-0.3,0.3-0.5,0.5-0.8
	c7.8,7,14.4,11.6,19.3,13.9c4.9,2.3,8,2.2,9-0.1c1.4-3.4-2.9-10.6-8.2-15.9c-3.4-3.3-6.5-5.3-10-6.7c-1.9-0.8-4.1-1.1-7.2-1.5
	c-4.4-0.6-7.8-1.4-10.8-2.5s-5.6-2.6-8.4-4.5c-2.6-1.9-5.6-4.4-8.3-7.2c-4.6-4.8-8.1-9.8-9.8-13.9c-1.7-4-1.9-7.3-0.1-9
	c0.6-0.6,1.5-0.9,2.4-0.9c1.6-0.2,5.4,0.8,5.9,0.3s0.3-1.2-2.8-4.6l0.3-0.3c2.9,2.8,5.9,5.6,8.9,8.4c3.1,2.9,6.2,5.9,9.4,8.9
	c-0.2,0.2-0.3,0.4-0.5,0.5c-5-4.2-9.5-7.2-13-8.8c-3.5-1.6-6.2-1.8-7.4-0.6c-1.9,1.9,0.3,6.6,4.1,10.4c1.3,1.3,2.4,2.2,3.6,3.1
	c1.6,1,3.3,1.9,5.2,2.5c1.5,0.6,4.1,1,7.9,1.6c2.8,0.4,5.3,1,7.6,1.7s4.4,1.6,6.2,2.6c3.6,2.2,7.7,5.2,12,9.4
	c5.5,5.3,10.3,11.2,13.3,16.7C178.7,423.1,180.2,428.2,178.9,431.3z"/>
<path class="st2" d="M340.9,417.9l48.2,48.9l9.1-6l-48.2-49L340.9,417.9z M118.3,188.1c2.6-2.4,5.2-4.7,8-6.9L25.1,72.6l1.4-1.5
	c3.4-3.7,4.6-8.4,1.1-12c-3.6-3.6-8.7-2.6-12.2,1.1l-6.8,7.3c-3.4,3.7-3.9,8.7-0.3,12.2c2.8,2.8,6.3,2.4,9.3,0.4L118.3,188.1z
	 M149.1,160.8c0.6,1.7,2.2,2.9,3.9,3.8c17.3-8.1,36.6-12.7,56.9-12.7c20.4,0,39.7,4.5,56.9,12.7c1.6-0.9,3.3-2.1,3.9-3.8
	c0.5-1.3,0.7-4.6-1-5.3c-9.3-4.3-19.1-7.5-29.2-9.7c-20.2-4.4-41.2-4.4-61.4,0c-10.2,2.2-20,5.5-29.2,9.7
	C148.4,156.2,148.6,159.5,149.1,160.8L149.1,160.8z"/>
<path d="M168.4,138.9c1.4,0.6,2.8,0.5,4.1,0.2l13-2.9c1.1-0.2,2.1-0.6,3-1.2c1.3-1,2.2-2.8,1.3-4.4c-1.1-2-3.8-2.2-5.8-1.7
	l-13.1,2.9c-1.4,0.3-2.7,0.8-3.6,1.9C165.6,135.5,166.1,137.8,168.4,138.9z M167.5,133.9c0.9-1.1,2.1-1.5,3.4-1.7l13.1-2.9
	c1.8-0.4,4.4-0.4,5.4,1.5c0.7,1.5-0.1,3-1.3,3.9c-0.8,0.6-1.7,0.9-2.7,1.1l-13,2.9c-1.2,0.3-2.6,0.4-3.8-0.2
	C166.6,137.6,166.1,135.5,167.5,133.9L167.5,133.9z"/>
<path class="st4" d="M168.5,138.5c1.2,0.6,2.6,0.5,3.8,0.2l13-2.9c1-0.2,1.9-0.5,2.7-1.1c1.2-0.9,2.1-2.4,1.3-3.9
	c-1-2-3.6-2-5.4-1.5l-13.1,2.9c-1.2,0.3-2.4,0.7-3.4,1.7C166.1,135.5,166.6,137.6,168.5,138.5L168.5,138.5z"/>
<path class="st1" d="M162.2,400.8c-4.4-4.2-8.4-7.2-12-9.4c-1.8-1-3.9-1.9-6.2-2.6s-4.8-1.3-7.6-1.7c-3.8-0.6-6.4-1-7.9-1.6
	c-1.9-0.6-3.6-1.5-5.2-2.5c-1.2-0.9-2.3-1.8-3.6-3.1c-3.8-3.9-6.1-8.5-4.1-10.4c1.2-1.2,3.9-1,7.4,0.6s8,4.5,13,8.8
	c0.2-0.2,0.3-0.4,0.5-0.5c-3.2-3-6.3-6-9.4-8.9c-3-2.9-6-5.6-8.9-8.4l-0.3,0.3c3,3.4,3.3,4.1,2.8,4.6s-4.3-0.5-5.9-0.3
	c-1,0-1.8,0.4-2.4,0.9c-1.8,1.7-1.6,4.9,0.1,9c1.8,4.1,5.2,9.1,9.8,13.9c2.7,2.8,5.7,5.4,8.3,7.2c2.8,1.9,5.4,3.4,8.4,4.5
	s6.4,1.9,10.8,2.5c3.1,0.4,5.3,0.7,7.2,1.5c3.5,1.4,6.6,3.3,10,6.7c5.4,5.3,9.7,12.5,8.2,15.9c-1,2.3-4.1,2.4-9,0.1
	s-11.5-6.9-19.3-13.9c-0.2,0.3-0.3,0.5-0.5,0.8c4.3,4.5,8.8,9.1,13.3,13.9c4.7,4.9,9.5,9.9,14.4,15c0.1-0.3,0.3-0.7,0.4-1
	c-2.9-3.9-3.9-6.5-3.5-7.4c0.2-0.5,0.8-0.7,1.9-0.9c3.9,0.1,5.2-0.9,6.1-2.9c1.3-3.2-0.2-8.2-3.4-13.8
	C172.4,412.1,167.7,406.1,162.2,400.8L162.2,400.8z"/>
<path class="st2" d="M209.9,44.7c3.3,0,6-2.7,6-6s-2.7-6-6-6s-6,2.7-6,6C204,42,206.6,44.7,209.9,44.7z"/>
<path class="st4" d="M138.3,65.4c-0.3,4.3-3.3,7.8-7.2,9c0.3,1,0.4,2,0.4,3c0,3.5-1.7,6.6-4.4,8.4c0.7,1.4,1,2.9,1,4.5
	c0,3-1.3,5.8-3.4,7.6c1.4,1.7,2.2,3.9,2.2,6.3c0,1.7-0.4,3.2-1.1,4.6c1-0.6,2.2-1,3.3-1c1.5,0,3.1,0.5,4.3,1.6l0.6,0.6
	c0.1,0.1,0.1,0.2,0.2,0.3c0.3,0.3,0.5,0.7,0.6,1c2.6-0.4,5-1.2,7.3-2.4c2.4-1.2,4.5-2.9,6.4-4.8c-1.4-1.1-2.4-2.7-2.9-4.5
	c-0.5-1.9-0.3-3.9,0.4-5.6s1.9-3.1,3.5-4.1c0.1-2.2,1.1-4,2.4-5.4c1.1-1.1,2.5-1.9,4-2.3c0.1,0,0.1,0,0.2-0.1
	c-0.9-1.4-1.4-3.1-1.4-4.9c0-4,2.6-7.4,6.2-8.7c-0.8-1.4-1.2-3.1-1.2-4.9c0-4.6,3-8.4,7.1-9.8c-0.4-0.8-0.6-1.7-0.8-2.7
	c-1.9,2.4-4.8,3.9-8.1,3.9c-3,0-5.7-1.3-7.6-3.3c0.4,1.1,0.6,2.2,0.6,3.4c0,5.7-4.6,10.3-10.3,10.3C140,65.7,139.1,65.6,138.3,65.4z
	 M180.5,63.9c0,4.8-3.3,8.9-7.9,10c0.5,1.1,0.7,2.3,0.7,3.6c0,4-2.6,7.4-6.1,8.7c1.2,0.3,2.4,0.8,3.4,1.6c1.5,1.1,2.6,2.7,3.1,4.7
	c0.6,2.1,0.3,4.2-0.6,6c5,1.9,10.4,2.6,15.6,2c3.8-0.5,7.5-1.8,10.8-3.9c-2.3-1.7-3.6-4.3-3.6-7.1c0-2.1,0.8-4.1,2.1-5.6
	c-2.6-1.4-4.3-4.2-4.3-7.3c0-3.4,2-6.3,4.9-7.6c-2.9-1.3-4.9-4.2-4.9-7.6c0-4.5,3.6-8.2,8.1-8.3c0.2-1.3,0.6-2.5,1.3-3.5
	c-1-0.7-2-1.5-2.8-2.5c-1.9,2.4-4.8,3.9-8.1,3.9c-2,0-3.9-0.6-5.5-1.6v0.7c0,4.6-3,8.4-7.1,9.8C180.2,61,180.5,62.4,180.5,63.9
	L180.5,63.9z M226.3,61.2c0,3.4-2,6.3-4.9,7.6c2.9,1.3,4.9,4.2,4.9,7.6c0,3.1-1.7,5.9-4.3,7.3c1.3,1.5,2.1,3.5,2.1,5.6
	c0,2.9-1.4,5.5-3.6,7.1c3.3,2.2,7,3.4,10.8,3.9c5.2,0.7,10.6-0.1,15.6-2c-0.9-1.8-1.2-3.9-0.6-6c0.5-1.9,1.6-3.5,3.1-4.7
	c1-0.8,2.1-1.3,3.4-1.6c-3.7-1.3-6.1-4.8-6.1-8.7c0-1.3,0.3-2.5,0.7-3.6c-4.5-1.1-7.9-5.2-7.9-10c0-1.5,0.3-2.9,0.9-4.2
	c-4.1-1.4-7.1-5.2-7.1-9.8V49c-1.6,1-3.5,1.6-5.5,1.6c-3.3,0-6.2-1.5-8.1-3.9c-0.8,1-1.7,1.8-2.8,2.5c0.7,1,1.1,2.2,1.3,3.5
	C222.7,53,226.3,56.7,226.3,61.2z M260,63.9c0,1.8-0.4,3.4-1.2,4.9c3.6,1.3,6.2,4.7,6.2,8.7c0,1.8-0.5,3.5-1.4,4.9
	c0.1,0,0.1,0,0.2,0.1c1.5,0.4,2.9,1.2,4,2.3c1.4,1.4,2.3,3.2,2.4,5.4c1.6,1,2.8,2.4,3.5,4.1s0.9,3.7,0.4,5.6
	c-0.5,1.8-1.5,3.4-2.9,4.5c1.9,2,4.1,3.6,6.4,4.8c2.3,1.2,4.7,2,7.3,2.4c0.2-0.3,0.4-0.6,0.6-1c0.1-0.1,0.1-0.2,0.2-0.3l0.6-0.6
	c1.2-1.1,2.8-1.6,4.3-1.6c1.2,0,2.3,0.4,3.3,1c-0.7-1.4-1.1-3-1.1-4.6c0-2.4,0.8-4.6,2.2-6.3c-2.1-1.9-3.4-4.6-3.4-7.6
	c0-1.6,0.4-3.2,1-4.5c-2.7-1.9-4.4-4.9-4.4-8.4c0-1,0.2-2.1,0.4-3c-4-1.2-6.9-4.8-7.2-9c-0.8,0.2-1.7,0.3-2.6,0.3
	c-5.7,0-10.3-4.6-10.3-10.3c0-1.2,0.2-2.3,0.6-3.4c-1.9,2-4.6,3.3-7.6,3.3c-3.3,0-6.2-1.5-8.1-3.9c-0.1,0.9-0.4,1.8-0.8,2.7
	C257,55.4,260,59.3,260,63.9z"/>
<path class="st2" d="M209.9,51.1c-1.6,0-2.8,1.3-2.8,2.8c0,1.6,1.3,2.8,2.8,2.8c1.6,0,2.8-1.3,2.8-2.8
	C212.8,52.4,211.5,51.1,209.9,51.1z M209.9,64.2c-1.6,0-2.8,1.3-2.8,2.8c0,1.6,1.3,2.8,2.8,2.8c1.6,0,2.8-1.3,2.8-2.8
	C212.8,65.5,211.5,64.2,209.9,64.2z M201.9,80.3h0.2c0.8-1.6,2.1-2.9,3.7-3.8v-0.1c0-2.2-1.8-3.9-3.9-3.9c-2.2,0-3.9,1.8-3.9,3.9
	C198,78.6,199.8,80.3,201.9,80.3z M204.8,60.5c-1.1-0.8-1.9-1.9-2.5-3.2h-0.4c-2.2,0-3.9,1.8-3.9,3.9c0,2.1,1.7,3.9,3.8,3.9
	C202.3,63.3,203.3,61.6,204.8,60.5L204.8,60.5z M192.1,46.5c3.3,0,6-2.7,6-6s-2.7-6-6-6s-6,2.7-6,6S188.8,46.5,192.1,46.5z
	 M122.6,104.3c0-3.3-2.7-6-6-6s-6,2.7-6,6s2.7,6,6,6S122.6,107.6,122.6,104.3z M117.8,96.4c3.3,0,6-2.7,6-6s-2.7-6-6-6s-6,2.7-6,6
	C111.9,93.7,114.5,96.4,117.8,96.4z M121.2,83.4c3.3,0,6-2.7,6-6s-2.7-6-6-6s-6,2.7-6,6S117.9,83.4,121.2,83.4z M128,70.5
	c3.3,0,6-2.7,6-6s-2.7-6-6-6s-6,2.7-6,6C122,67.9,124.7,70.5,128,70.5z M140.9,61.4c3.3,0,6-2.7,6-6s-2.7-6-6-6s-6,2.7-6,6
	S137.6,61.4,140.9,61.4z M158.1,51c3.3,0,6-2.7,6-6s-2.7-6-6-6s-6,2.7-6,6C152.2,48.3,154.9,51,158.1,51z M176.4,55.9
	c3.3,0,6-2.7,6-6s-2.7-6-6-6s-6,2.7-6,6S173.1,55.9,176.4,55.9z M164.2,63.9c0,3.3,2.7,6,6,6s6-2.7,6-6s-2.7-6-6-6
	S164.2,60.6,164.2,63.9z M164.1,72.5c-2.7,0-4.9,2.2-4.9,4.9s2.2,4.9,4.9,4.9s4.9-2.2,4.9-4.9S166.8,72.5,164.1,72.5z M303.3,98.4
	c-3.3,0-6,2.7-6,6s2.7,6,6,6s6-2.7,6-6C309.2,101.1,306.5,98.4,303.3,98.4z M296,90.4c0,3.3,2.7,6,6,6s6-2.7,6-6s-2.7-6-6-6
	S296,87.1,296,90.4z M292.7,77.4c0,3.3,2.7,6,6,6s6-2.7,6-6s-2.7-6-6-6S292.7,74.1,292.7,77.4z M291.9,70.5c3.3,0,6-2.7,6-6
	s-2.7-6-6-6s-6,2.7-6,6C285.9,67.9,288.6,70.5,291.9,70.5z M279,61.4c3.3,0,6-2.7,6-6s-2.7-6-6-6s-6,2.7-6,6S275.7,61.4,279,61.4z
	 M261.7,51c3.3,0,6-2.7,6-6s-2.7-6-6-6s-6,2.7-6,6S258.4,51,261.7,51z M227.7,46.5c3.3,0,6-2.7,6-6s-2.7-6-6-6s-6,2.7-6,6
	C221.8,43.8,224.5,46.5,227.7,46.5z M243.5,55.9c3.3,0,6-2.7,6-6s-2.7-6-6-6s-6,2.7-6,6S240.2,55.9,243.5,55.9z M243.7,63.9
	c0,3.3,2.7,6,6,6s6-2.7,6-6s-2.7-6-6-6S243.7,60.6,243.7,63.9z M250.9,77.4c0,2.7,2.2,4.9,4.9,4.9s4.9-2.2,4.9-4.9s-2.2-4.9-4.9-4.9
	C253,72.5,250.9,74.7,250.9,77.4z M214,76.5c1.6,0.8,2.9,2.2,3.7,3.8h0.2c2.2,0,3.9-1.8,3.9-3.9c0-2.2-1.8-3.9-3.9-3.9
	C215.7,72.5,214,74.3,214,76.5L214,76.5z M218.1,65.1c2.1-0.1,3.8-1.8,3.8-3.9c0-2.2-1.8-3.9-3.9-3.9h-0.4c-0.6,1.3-1.4,2.3-2.5,3.2
	C216.5,61.6,217.6,63.3,218.1,65.1L218.1,65.1z M175.2,122.6c22.5-4.7,46.9-4.7,69.4,0c11.2,2.3,21.9,5.8,32,10.4
	c4.8,2.2,8.4-7,2.3-9.6c-10.4-4.6-21.4-8-32.8-10.4c-23.6-4.8-48.9-4.8-72.5,0c-11.4,2.3-22.3,5.8-32.8,10.4
	c-6.1,2.7-2.5,11.8,2.3,9.6C153.3,128.4,164.1,124.9,175.2,122.6z"/>
<path d="M221.1,130.8l-11.1-4.4l-11.1,4.4l11.1,4.4L221.1,130.8z M209.9,126.8l10,4l-10,4l-10-4L209.9,126.8z"/>
<path class="st1" d="M219.9,130.8l-10-4l-10,4l10,4L219.9,130.8z"/>
<path d="M234.5,136.2l13,2.9c1.3,0.3,2.7,0.4,4.1-0.2c2.2-1,2.7-3.4,1.2-5.2c-0.9-1.1-2.2-1.6-3.6-1.9l-13.1-2.9
	c-2-0.4-4.6-0.3-5.8,1.7c-0.9,1.6,0,3.4,1.3,4.4C232.4,135.6,233.4,136,234.5,136.2z M230.5,130.8c1-2,3.6-2,5.4-1.5l13.1,2.9
	c1.2,0.3,2.4,0.7,3.3,1.7c1.4,1.6,0.9,3.7-1,4.6c-1.2,0.6-2.6,0.5-3.8,0.2l-13-2.9c-1-0.2-1.9-0.5-2.7-1.1
	C230.6,133.9,229.8,132.3,230.5,130.8z"/>
<path class="st4" d="M234.5,135.8l13,2.9c1.2,0.3,2.6,0.4,3.8-0.2c1.9-0.9,2.4-2.9,1-4.6c-0.9-1.1-2.1-1.5-3.3-1.7l-13.1-2.9
	c-1.8-0.4-4.4-0.4-5.4,1.5c-0.7,1.5,0.1,3,1.3,3.9C232.6,135.3,233.6,135.6,234.5,135.8z"/>
<path class="st1" d="M149.6,419.8c-4.6-4.9-9.5-8.9-14.9-12.1c-2.8-1.8-5.7-3.1-8.5-4c-2.3-0.8-4.6-1.7-6.9-2.5
	c-5.2-1.9-9.1-3.5-11.3-4.6c-2.2-1.2-5-3.5-8.7-7c-5.9-5.7-9.9-11.9-8.1-14c1.4-1.6,5.4-0.3,10.8,3c5.3,3.2,11.8,8.2,17.9,13.7
	c0.4-0.2,0.7-0.5,1.1-0.7c-4.1-4.3-8.4-8.9-12.9-13.6c-4.7-4.9-9.6-10.2-14.7-15.6c-0.3,0.4-0.7,0.9-1,1.3c2.8,3.4,4.3,5.4,3.6,6.2
	c-0.1,0.2-2-0.1-4.1,0c-2,0-4.3,0.3-5.2,1.6c-1.9,2.5,0.1,7.3,3.8,12.7c3.5,5,8.5,10.5,13.7,15.3c4.5,4.2,8.6,7.5,12.2,9.7
	c1.9,1.2,4,2.4,6.1,3.4c2.2,1.1,4.5,2.1,7.1,3.1c1.8,0.7,3.6,1.3,5.4,2c3.1,1.1,5.7,2.3,7.3,3.1c2.4,1.3,4.7,3.2,7,5.5
	c3.8,3.9,6.3,8.2,2.5,8.6c-1.9,0.2-4.6-0.7-8.4-2.8c-3.8-2.2-8.7-5.7-15.2-11.1c-0.3,0.1-0.6,0.2-0.9,0.2c3.3,3,6.4,6,9.5,8.8
	c2.9,2.7,5.8,5.4,8.6,8c0.3,0,0.6-0.1,1-0.1c-1.4-1.5-2-2.3-1.2-2.3c0.2,0,0.8,0.1,1.3,0.3c0.4,0.1,0.7,0.2,1.1,0.3
	c2.6,0.8,4.9,1.3,6.5,1.1c3.8-0.3,4.7-2.5,3.7-5.6C156.7,428.5,153.6,424,149.6,419.8L149.6,419.8z"/>
<path class="st5" d="M178.4,302.3c12.9-10.4,26.9-19.5,41.8-26.7c0.9-0.4,1.7-0.8,2.6-1.2c-15.7-15-30.9-32.1-38.5-52.6
	c-2.2-5.9-3.2-11-2.4-16.8c-13.8,2.4-32.5,7-44.9,16.4c-13.9,10.7-13.8,26.3-7.9,42.2c7.5,20.3,21.6,34.4,37.2,48.2
	C170.4,308.7,174.3,305.6,178.4,302.3L178.4,302.3z"/>
<path class="st5" d="M108.2,337.8c10.3-1.7,19.9-4.6,29.1-8.6c8.8-3.9,16.6-8.6,24-13.8c-15.6-14.1-28.5-28-36.8-48.5
	c-4.6-11.5-7-23.7-3.6-33.9c-14.1,6.2-25.8,14.8-36.2,25.7c-1.9,8.8-2.9,18-2.9,27.4c0,18.9,4.1,36.8,11.4,52.9
	C98.1,339,103.1,338.7,108.2,337.8z M87.8,247.3c11.3-10.3,24.2-18.6,38.8-23.7c13.3-15.7,37.1-21.6,56.7-24.9
	c1.5-4.4,4.1-9.7,7.5-14.6c4.3-6.1,9-11.8,14.4-17c3.2-3.1,6.7-6.1,10.5-8.9c-1.9-0.1-3.9-0.1-5.8-0.1
	C152.8,158,104.3,195.5,87.8,247.3z M237.4,180.2c-5.7,4.9-10.8,10.5-15.6,16.6c8.5,5.3,16.7,11,24.8,17l4.3-6c-3-2.8-5.9-4.8-9-6.7
	c-1.4-1.1-1.8-3.5-0.7-4.9c1.1-1.4,3.5-1.7,4.9-0.6c2.7,3,5.6,5.1,8.6,6.9l5.7-8c-2.1-1.8-4.3-3.2-6.6-4.5c-1.3-0.9-1.7-2.8-0.8-4.1
	c0.9-1.3,2.8-1.7,4.1-0.8c2,1.9,4.1,3.5,6.4,5l4.4-6.2c-1.2-1.1-2.6-1.9-4-2.4c-1.3-0.9-1.7-2.7-0.8-4.1c0.9-1.3,2.7-1.7,4.1-0.8
	c1.1,1.3,2.4,2.2,3.7,3.1l3.3-4.6c-5-2.9-10.3-5.5-15.7-7.7C250.4,170.5,243.5,174.9,237.4,180.2L237.4,180.2z M275.7,191.1
	c-0.9-1.3-2-2.4-3.1-3.3l-4.4,6.1c1.7,1.5,3.5,3,5.5,4.3c1.2,1.1,1.3,2.9,0.3,4.2c-1.1,1.2-3,1.3-4.2,0.3c-1.5-1.9-3.1-3.3-4.7-4.4
	l-5.8,8.2c2.6,2.5,5.4,4.6,8.5,6.9c1.3,1.2,1.3,4,0.2,5.3c-1.2,1.3-3.6,1-4.9-0.2c-2.3-2.7-4.7-4.8-7.4-6.8l-4.3,6
	c7.4,5.7,14.6,11.7,21.7,17.8c5.4-5.9,9.9-11.9,13.3-18.8c3.8-7.6,6.3-16.3,7.3-27.2c-4.6-4-9.4-7.6-14.5-10.9l-3.7,5.2
	c1.3,1.2,2.7,2.2,4.2,3.2c1.2,1.1,1.2,3,0.1,4.2C278.7,192.1,276.9,192.2,275.7,191.1z"/>
<path class="st5" d="M273.5,243.7c-9.6-8.3-19.3-16.4-29.4-24.1c-10.1-7.6-20.5-14.7-31.4-21.3c6.3-8.1,12.8-16,20.6-22.8
	c5.1-4.4,10.6-8.2,16.7-11.2c-7.9-2.6-16.1-4.5-24.6-5.5c-6,3.7-11.3,7.9-16,12.4c-5.1,5-9.6,10.4-13.7,16.2
	c-4.3,6-6.7,11.4-7.5,16.6c-0.8,5.1-0.1,10.1,1.8,15.4c7.5,20.4,23.1,37.4,38.8,52.1c15.9-6.6,32.6-10.4,49.9-10.7
	c7.1-6,13.8-12.8,20-20.7c6.1-7.9,11.6-17,16.2-27.7c-4.6-6.6-9.9-12.7-15.6-18.3c-1.3,9.7-3.9,17.7-7.4,24.8
	C287.2,228.5,280.6,236.2,273.5,243.7L273.5,243.7z M285.1,263.6c14,17.3,31.3,31.8,50.4,43.2l0.8,0.5c1.1-6.9,1.7-13.9,1.7-21.1
	c0-24.7-7-47.8-19.2-67.4c-4.4,9.6-9.6,18-15.3,25.4C297.8,251.4,291.6,257.8,285.1,263.6z"/>
<path class="st1" d="M264.2,140.3l8.5,10.5l10.3-2.3l-5.8-9.8L264.2,140.3z M155.6,140.3l-12.9-1.6l-5.8,9.8l10.3,2.3L155.6,140.3z"
	/>
<path class="st2" d="M155.8,109.2c2-2.2,3.8-4.7,5.2-7.5c14.4,8.9,35.9,9.4,48.9-2.8c13,12.3,34.5,11.8,48.9,2.8
	c1.4,2.8,3.2,5.3,5.2,7.5c9.1,11.7,23,13,36.4,9.8c3.2-0.8,2-5.7-1.2-4.9c-3.3,0.8-4.8,0.4-6.6-1.6c-1-1.1-3.1-1.2-4,0
	c-1.5,1.9,0.6,3.1-3.1,2.8c-7.3-0.2-13.3-3.8-17.8-9.4c-0.9-1-1.8-2.1-2.6-3.3c2.4,0.3,4.8-1.3,5.4-3.7c0.6-2.3-0.4-4.6-2.4-5.7
	c-1.3-0.7-1.6-0.8-1.6-2.4c0-5.1-7-7-9.5-2.5c-0.8,1.4-1.1,1.3-2.6,1.3c-2.2,0-4.3,1.5-4.9,3.8c-0.7,2.6,0.8,5.3,3.4,6.1
	c-12.7,6.7-30.1,6.4-40.1-4.8c3.2,1,7.8-1.6,7.8-5.1c0-2.3-1.6-4.3-3.8-4.9c-1.5-0.4-1.8-0.4-2.2-1.9c-1.3-5-8.5-5-9.8,0
	c-0.4,1.5-0.7,1.5-2.2,1.9c-2.2,0.6-3.8,2.5-3.8,4.9c0,3.5,4.6,6.1,7.8,5.1c-10,11.2-27.4,11.5-40.1,4.8c2.6-0.8,4.1-3.5,3.4-6.1
	c-0.6-2.3-2.7-3.8-4.9-3.8c-1.5,0-1.8,0.1-2.6-1.3c-2.5-4.5-9.5-2.6-9.4,2.5c0,1.5-0.3,1.6-1.6,2.4c-2,1.1-3,3.4-2.4,5.7
	c0.6,2.4,3,4,5.4,3.7c-0.8,1.2-1.7,2.3-2.6,3.3c-4.5,5.6-10.5,9.2-17.8,9.4c-3.7,0.4-1.5-0.9-3.1-2.8c-1-1.2-3-1-4,0
	c-1.8,2-3.3,2.4-6.6,1.6c-3.2-0.8-4.4,4.1-1.2,4.9C132.8,122.3,146.7,120.9,155.8,109.2L155.8,109.2z M260.4,92.5
	c1.5,0,2.7,1.2,2.7,2.7s-1.2,2.7-2.7,2.7s-2.7-1.2-2.7-2.7C257.6,93.7,258.9,92.5,260.4,92.5z M209.8,86c1.5,0,2.7,1.2,2.7,2.7
	s-1.2,2.7-2.7,2.7s-2.7-1.2-2.7-2.7S208.3,86,209.8,86z M159.5,92.5c1.5,0,2.7,1.2,2.7,2.7s-1.2,2.7-2.7,2.7s-2.7-1.2-2.7-2.7
	S158,92.5,159.5,92.5z"/>
<path d="M209.8,91.4c1.5,0,2.7-1.2,2.7-2.7s-1.2-2.7-2.7-2.7s-2.7,1.2-2.7,2.7S208.3,91.4,209.8,91.4z M159.5,98
	c1.5,0,2.7-1.2,2.7-2.7s-1.2-2.7-2.7-2.7s-2.7,1.2-2.7,2.7C156.8,96.7,158,98,159.5,98z M260.4,98c1.5,0,2.7-1.2,2.7-2.7
	s-1.2-2.7-2.7-2.7s-2.7,1.2-2.7,2.7C257.6,96.7,258.9,98,260.4,98z"/>
</svg>
